<svg xmlns="http://www.w3.org/2000/svg" viewBox="0 0 103.98 25.79"><defs><style>.cls-1{fill:#ff119b;}.cls-2{fill:#1d1d1b;}</style></defs><title>COMBOS_1</title><g id="Capa_2" data-name="Capa 2"><g id="Capa_3" data-name="Capa 3"><path class="cls-1" d="M4.1,23.27Q.9,21.42.38,15.06A12.25,12.25,0,0,1,4,4.69q4.17-4,10.53-1.6c-.3,2.09-.64,4.08-1,6a6.3,6.3,0,0,0-4-.32,3.47,3.47,0,0,0-2.32,2.62,4,4,0,0,0,.82,3.86Q9.5,17,13.6,16.63l.58,7.3Q7.3,25.12,4.1,23.27Z"/><path class="cls-2" d="M9.4,24.71a11,11,0,0,1-5.46-1.16h0C1.72,22.27.42,19.42.06,15.08A12.59,12.59,0,0,1,3.8,4.45C6.66,1.7,10.31,1.14,14.66,2.78l.25.1,0,.25c-.3,2.08-.64,4.1-1,6l-.07.37-.36-.13a6.11,6.11,0,0,0-3.77-.32,3.16,3.16,0,0,0-2.1,2.4A3.67,3.67,0,0,0,8.31,15c.88,1.07,2.66,1.5,5.26,1.28l.33,0,.63,7.93-.29,0A28.65,28.65,0,0,1,9.4,24.71ZM4.27,23c2,1.16,5.22,1.39,9.56.68L13.3,17c-2.66.18-4.5-.34-5.49-1.53a4.32,4.32,0,0,1-.88-4.16A3.79,3.79,0,0,1,9.47,8.45a6.44,6.44,0,0,1,3.82.2c.33-1.71.63-3.5.9-5.35-4-1.46-7.29-.93-9.94,1.62A12,12,0,0,0,.71,15c.34,4.11,1.53,6.79,3.56,8Z"/><path class="cls-1" d="M20.65,22.23a10.88,10.88,0,0,1-5-5.73,11.24,11.24,0,0,1-.51-7.72A7.65,7.65,0,0,1,19.4,3.59,7.28,7.28,0,0,1,26,4,10.82,10.82,0,0,1,31.07,9.7a11.34,11.34,0,0,1,.53,7.73,7.68,7.68,0,0,1-4.32,5.18A7.33,7.33,0,0,1,20.65,22.23ZM23.1,15a1.33,1.33,0,0,0,1.28-.65,2.27,2.27,0,0,0,.28-1.74,3.61,3.61,0,0,0-.9-1.81,2.35,2.35,0,0,0-1.56-.84,1.33,1.33,0,0,0-1.28.63,2.41,2.41,0,0,0-.26,1.75,3.53,3.53,0,0,0,.9,1.82A2.31,2.31,0,0,0,23.1,15Z"/><path class="cls-2" d="M24.42,23.55a8.41,8.41,0,0,1-3.92-1h0a11.28,11.28,0,0,1-5.2-5.89,11.64,11.64,0,0,1-.52-7.94A8,8,0,0,1,19.27,3.3a7.64,7.64,0,0,1,6.91.39,11.23,11.23,0,0,1,5.19,5.89,11.65,11.65,0,0,1,.54,7.94,8,8,0,0,1-4.5,5.39A7.38,7.38,0,0,1,24.42,23.55ZM20.8,22a7.08,7.08,0,0,0,6.35.36,7.4,7.4,0,0,0,4.14-5,11,11,0,0,0-.52-7.5,10.53,10.53,0,0,0-4.9-5.56,7,7,0,0,0-6.34-.38,7.41,7.41,0,0,0-4.13,5,11,11,0,0,0,.5,7.5A10.7,10.7,0,0,0,20.8,22Zm2.42-6.67h-.14a2.65,2.65,0,0,1-1.77-.94,3.93,3.93,0,0,1-1-2,2.77,2.77,0,0,1,.3-2,1.71,1.71,0,0,1,1.58-.79,2.69,2.69,0,0,1,1.77.94,3.92,3.92,0,0,1,1,2,2.6,2.6,0,0,1-.33,2A1.63,1.63,0,0,1,23.22,15.28Zm-1.14-5a1,1,0,0,0-.89.49A2.1,2.1,0,0,0,21,12.25a3.25,3.25,0,0,0,.81,1.65,2,2,0,0,0,1.33.73h0a1,1,0,0,0,1-.5,1.9,1.9,0,0,0,.24-1.5A3.19,3.19,0,0,0,23.52,11a2,2,0,0,0-1.34-.74Z"/><path class="cls-1" d="M48.07,2.94q1.35,7.86,3.78,18.44a18.21,18.21,0,0,0-5.59,2.45A75.06,75.06,0,0,1,44.13,16l-.78,1.4-1.89,3.24-1.89-4.66q-.1,5-.57,9.45A17.32,17.32,0,0,1,32.83,25q.6-10.23.59-20.17a19.33,19.33,0,0,1,5.08-1q1.17,2.49,3.12,7.82A75.82,75.82,0,0,0,44.29,2,17.41,17.41,0,0,1,48.07,2.94Z"/><path class="cls-2" d="M36.71,25.79a13,13,0,0,1-4-.48l-.24-.08,0-.25c.39-6.79.59-13.57.59-20.15V4.59l.22-.07a19.6,19.6,0,0,1,5.16-1h.22l.09.19c.73,1.53,1.67,3.88,2.82,7A82.13,82.13,0,0,0,44,1.92L44,1.63l.3,0a17.62,17.62,0,0,1,3.85,1l.17.06,0,.18c.9,5.21,2.17,11.41,3.78,18.43l.08.32-.32.07a18.16,18.16,0,0,0-5.49,2.4l-.33.2L46,24a64.83,64.83,0,0,1-2-7.11l-.38.67-2.22,3.81-1.56-3.83c-.09,2.78-.27,5.44-.53,7.92l0,.28H39Q37.77,25.79,36.71,25.79Zm-3.54-1a17.84,17.84,0,0,0,5.54.3c.28-2.84.46-5.92.53-9.15l0-1.57,2.23,5.5,2.75-4.78.19.81c.9,3.8,1.56,6.3,2,7.46a19.09,19.09,0,0,1,5-2.2c-1.57-6.82-2.8-12.86-3.68-18a16.68,16.68,0,0,0-3.24-.82,75.89,75.89,0,0,1-2.62,9.45l-.31.84-.31-.84c-1.23-3.38-2.24-5.94-3-7.59a18.85,18.85,0,0,0-4.55.85C33.74,11.51,33.55,18.13,33.17,24.77Z"/><path class="cls-1" d="M52.11,23.44A158.72,158.72,0,0,0,52,3q6-1.22,10.25.78t5.18,5.64q.93,3.65-.35,5.4a3.61,3.61,0,0,1-2.89,1.75A3.88,3.88,0,0,1,67,20.3c.06,1.86-1.15,3.23-3.63,4.13S57.13,25,52.11,23.44Zm8.6-3.38c0-1.12-1-1.87-3-2.27,0,.84-.05,2-.16,3.61C59.64,21.62,60.69,21.18,60.71,20.06Zm1.43-8.69c0-1.69-1.46-2.64-4.32-2.87.08,1.52.08,3.31,0,5.36Q62.18,13.91,62.14,11.37Z"/><path class="cls-2" d="M60.15,25.25A28.3,28.3,0,0,1,52,23.75l-.24-.08,0-.25A161.59,161.59,0,0,0,51.67,3l0-.29.28-.06a16.57,16.57,0,0,1,10.46.81c2.92,1.37,4.72,3.34,5.36,5.85s.49,4.42-.41,5.67a4.54,4.54,0,0,1-2.08,1.7,4.09,4.09,0,0,1,2.08,3.63c.06,2-1.24,3.5-3.85,4.45A9.76,9.76,0,0,1,60.15,25.25Zm-7.7-2.05c4.81,1.47,8.44,1.79,10.8.93s3.48-2.1,3.43-3.82a3.54,3.54,0,0,0-2.61-3.48l-1.73-.63h1.84a3.26,3.26,0,0,0,2.62-1.62c.79-1.09.89-2.81.31-5.13S64.84,5.31,62.1,4a15.77,15.77,0,0,0-9.77-.82A160.16,160.16,0,0,1,52.45,23.2Zm6.06-1.42a9.37,9.37,0,0,1-1-.06l-.31,0,0-.32c.1-1.55.16-2.76.16-3.58V17.4l.38.07c2.2.43,3.3,1.3,3.28,2.59a1.54,1.54,0,0,1-.5,1.16A3,3,0,0,1,58.51,21.78Zm-.62-.68c1.36.11,2-.13,2.21-.37a.86.86,0,0,0,.29-.68q0-1.29-2.37-1.86C58,18.94,58,19.91,57.89,21.1ZM58,14.19h-.48l0-.33c.08-2,.08-3.83,0-5.33l0-.37.37,0c3,.24,4.59,1.31,4.62,3.19h0a2.32,2.32,0,0,1-.66,1.74C61.09,13.84,59.83,14.19,58,14.19Zm.21-5.33c0,1.36,0,2.93,0,4.68a4.63,4.63,0,0,0,3.19-.89,1.67,1.67,0,0,0,.47-1.27h0C61.8,9.94,60.6,9.12,58.17,8.86Z"/><path class="cls-1" d="M75.16,22.23a10.88,10.88,0,0,1-5-5.73,11.24,11.24,0,0,1-.51-7.72,7.63,7.63,0,0,1,4.31-5.19A7.28,7.28,0,0,1,80.53,4a10.86,10.86,0,0,1,5,5.72,11.34,11.34,0,0,1,.53,7.73,7.68,7.68,0,0,1-4.32,5.18A7.33,7.33,0,0,1,75.16,22.23ZM77.61,15a1.33,1.33,0,0,0,1.28-.65,2.27,2.27,0,0,0,.28-1.74,3.61,3.61,0,0,0-.9-1.81,2.35,2.35,0,0,0-1.56-.84,1.33,1.33,0,0,0-1.28.63,2.41,2.41,0,0,0-.26,1.75,3.59,3.59,0,0,0,.89,1.82A2.35,2.35,0,0,0,77.61,15Z"/><path class="cls-2" d="M78.93,23.55a8.41,8.41,0,0,1-3.92-1h0a11.28,11.28,0,0,1-5.2-5.89,11.64,11.64,0,0,1-.52-7.94A8,8,0,0,1,73.78,3.3a7.64,7.64,0,0,1,6.91.39,11.23,11.23,0,0,1,5.19,5.89,11.65,11.65,0,0,1,.54,7.94,8,8,0,0,1-4.5,5.39A7.38,7.38,0,0,1,78.93,23.55ZM75.31,22a7.08,7.08,0,0,0,6.35.36,7.4,7.4,0,0,0,4.14-5,11,11,0,0,0-.52-7.5,10.53,10.53,0,0,0-4.9-5.56A7,7,0,0,0,74,3.89a7.41,7.41,0,0,0-4.13,5,11,11,0,0,0,.5,7.5A10.66,10.66,0,0,0,75.31,22Zm2.42-6.67h-.14a2.65,2.65,0,0,1-1.77-.94,3.93,3.93,0,0,1-1-2,2.72,2.72,0,0,1,.3-2,1.71,1.71,0,0,1,1.58-.79,2.69,2.69,0,0,1,1.77.94,3.92,3.92,0,0,1,1,2,2.55,2.55,0,0,1-.34,2A1.6,1.6,0,0,1,77.73,15.28Zm-1.14-5a1,1,0,0,0-.89.49,2.1,2.1,0,0,0-.21,1.52,3.25,3.25,0,0,0,.81,1.65,2,2,0,0,0,1.33.73h0a1,1,0,0,0,1-.5,1.9,1.9,0,0,0,.24-1.5A3.19,3.19,0,0,0,78,11a2,2,0,0,0-1.34-.74Z"/><path class="cls-1" d="M100.5.4a45.36,45.36,0,0,1,.29,5.67q-8.66,3-6.25,3.78,9.1,1.29,9.11,4.34t-3.77,5.7a60,60,0,0,1-9.95,5.42q-.9-3.87-2-7.71,10-1.62,5.69-2.39-5.91-.12-6.34-5.87T100.5.4Z"/><path class="cls-2" d="M89.71,25.77l-.09-.38c-.6-2.56-1.27-5.15-2-7.7l-.1-.35.36-.06c4.89-.8,6.23-1.29,6.59-1.51a3.81,3.81,0,0,0-.91-.24c-4.06-.08-6.3-2.15-6.61-6.17s4.1-7.09,13.48-9.28l.36-.08,0,.37a45.54,45.54,0,0,1,.28,5.71V6.3l-.22.08c-6.06,2.1-6.52,2.88-6.55,3a1.09,1.09,0,0,0,.3.13c6.26.88,9.34,2.4,9.34,4.65s-1.32,4.14-3.91,6a61.46,61.46,0,0,1-10,5.45Zm-1.36-7.91c.65,2.32,1.26,4.67,1.81,7a59.81,59.81,0,0,0,9.54-5.22c2.4-1.7,3.63-3.53,3.63-5.44s-3.06-3.2-8.84-4c-.55-.17-.8-.42-.8-.76,0-.63.82-1.49,6.78-3.57a46.43,46.43,0,0,0-.25-5C91.57,2.87,87.33,5.73,87.6,9.31s2.25,5.5,6,5.58c1,.17,1.61.38,1.6.86S95.21,16.73,88.35,17.86Z"/></g></g></svg>