<svg xmlns="http://www.w3.org/2000/svg" viewBox="0 0 172.28 25.82"><defs><style>.cls-1{fill:#00daff;}.cls-2{fill:#1d1d1b;}</style></defs><title>HAMBURGUESAS_1</title><g id="Capa_2" data-name="Capa 2"><g id="Capa_3" data-name="Capa 3"><path class="cls-1" d="M1.83,2.56a17.57,17.57,0,0,1,4.09.16c-.16,1.69-.23,4.13-.21,7.34.87,0,1.78,0,2.74.13q0-4.87-.2-7.68a26.78,26.78,0,0,1,6.05.82,122.2,122.2,0,0,1,.18,20l-6-.66c0-1.91,0-3.64-.07-5.2a8.72,8.72,0,0,0-2.76-.28c0,1.73,0,3.63.09,5.69l-4.94,0A171.11,171.11,0,0,1,.47,3.13C.34,2.86.79,2.67,1.83,2.56Z"/><path class="cls-2" d="M14.78,23.65l-.33,0c-1.89-.19-3.9-.42-6-.66l-.3,0v-.3c0-1.8,0-3.46-.06-4.94a8.25,8.25,0,0,0-2.13-.22c0,1.65,0,3.46.09,5.37l0,.34-5.59,0,0-.3A175.26,175.26,0,0,1,.14,3.18a.5.5,0,0,1,0-.38c.17-.3.63-.46,1.62-.57h0A18.23,18.23,0,0,1,6,2.4l.31,0,0,.31c-.15,1.62-.22,4-.21,7,.67,0,1.38,0,2.1.1,0-3.07-.07-5.52-.21-7.31l0-.36h.37A27.26,27.26,0,0,1,14.38,3l.22.06,0,.23a121.69,121.69,0,0,1,.18,20Zm-6-1.31,5.4.59A121.66,121.66,0,0,0,14,3.58,26.51,26.51,0,0,0,8.6,2.85c.12,1.83.19,4.3.18,7.34v.35l-.35,0c-.95-.08-1.87-.13-2.72-.14H5.39v-.32c0-3,0-5.38.19-7a16.75,16.75,0,0,0-3.7-.13h0A3.77,3.77,0,0,0,.79,3.1v0a177.3,177.3,0,0,0,.28,19.35l4.3,0c-.07-1.93-.1-3.73-.08-5.38v-.31h.31a9,9,0,0,1,2.86.3l.23.06v.23C8.78,18.89,8.81,20.54,8.78,22.34Z"/><path class="cls-1" d="M25,4.58q2.14,8.61,5,16.82l-5,3-1.11-4.57-3.23-.46c-.21,2.29-.37,3.81-.51,4.56L17.82,22.3l-2.49-1.22q2.31-9.69,3.81-17.44ZM21,14l1.89.28L21.63,9Z"/><path class="cls-2" d="M24.8,24.89,23.65,20.1,21,19.72c-.19,2.1-.35,3.53-.47,4.25l-.09.49-2.77-1.89L15,21.25,15,21c1.53-6.43,2.81-12.29,3.8-17.42l.06-.31,6.41,1,.05.21c1.42,5.7,3.11,11.35,5,16.79l.09.25ZM20.39,19l3.78.53,1.06,4.37,4.44-2.63c-1.86-5.31-3.51-10.82-4.91-16.39L19.4,4c-1,5-2.21,10.68-3.69,16.89L18,22l2,1.34c.12-.84.26-2.19.43-4Zm2.93-4.28-2.68-.4.89-7.12Zm-1.95-.95,1.1.17-.74-3.09Z"/><path class="cls-1" d="M43.19,3q1.16,7.86,3.23,18.45a14.6,14.6,0,0,0-4.77,2.44A77.54,77.54,0,0,1,39.83,16l-.67,1.39L37.54,20.6l-1.61-4.66q-.09,5-.48,9.46A12.88,12.88,0,0,1,30.18,25q.51-10.24.51-20.18A14.35,14.35,0,0,1,35,3.9c.67,1.66,1.56,4.26,2.66,7.82A84.9,84.9,0,0,0,40,2,13.14,13.14,0,0,1,43.19,3Z"/><path class="cls-2" d="M33.49,25.8a9.85,9.85,0,0,1-3.43-.48l-.22-.08V25c.34-6.79.51-13.57.51-20.16V4.62l.21-.08a14.64,14.64,0,0,1,4.43-1l.23,0,.09.22c.6,1.49,1.4,3.79,2.35,6.83.69-2.4,1.36-5.31,2-8.66l.05-.31.32.05a13.61,13.61,0,0,1,3.31,1l.16.07,0,.18c.77,5.2,1.85,11.4,3.23,18.43l.06.3-.3.07a14.2,14.2,0,0,0-4.66,2.4l-.35.25L41.34,24a71.6,71.6,0,0,1-1.64-7l-.25.52-2,3.94-1.28-3.69c-.08,2.69-.23,5.27-.44,7.67l0,.28-.28,0C34.76,25.78,34.1,25.8,33.49,25.8Zm-3-1a12.75,12.75,0,0,0,4.63.3c.24-2.85.4-5.92.46-9.15l0-1.83,2,5.65L40,15l.19.95c.76,3.73,1.32,6.22,1.68,7.41A14.79,14.79,0,0,1,46,21.17c-1.33-6.84-2.39-12.89-3.14-18a13.22,13.22,0,0,0-2.67-.8A85.21,85.21,0,0,1,38,11.81l-.31,1-.31-1c-1-3.37-1.91-5.92-2.56-7.57a14.2,14.2,0,0,0-3.8.83C31,11.51,30.84,18.15,30.52,24.79Z"/><path class="cls-1" d="M46.64,23.45A186,186,0,0,0,46.53,3a12,12,0,0,1,8.75.78,8.26,8.26,0,0,1,4.43,5.64q.78,3.63-.31,5.39a3,3,0,0,1-2.46,1.76,3.85,3.85,0,0,1,2.41,3.78q.07,2.78-3.11,4.13T46.64,23.45ZM54,20.08c0-1.12-.84-1.88-2.57-2.27,0,.83,0,2-.14,3.6C53.06,21.64,54,21.19,54,20.08Zm1.22-8.69q0-2.54-3.69-2.87c.07,1.52.07,3.31,0,5.36C54,13.91,55.22,13.07,55.2,11.39Z"/><path class="cls-2" d="M53.5,25.26a21.11,21.11,0,0,1-7-1.5l-.23-.09v-.23A188,188,0,0,0,46.21,3l0-.28.27-.06a12.32,12.32,0,0,1,9,.82A8.62,8.62,0,0,1,60,9.32c.53,2.5.42,4.4-.35,5.63a4.06,4.06,0,0,1-1.8,1.72,4.27,4.27,0,0,1,1.8,3.64c0,2-1.07,3.49-3.31,4.44A7.33,7.33,0,0,1,53.5,25.26Zm-6.53-2c4.08,1.46,7.16,1.77,9.15.92s3-2.1,2.91-3.82a3.53,3.53,0,0,0-2.22-3.49l-1.46-.63h1.59a2.76,2.76,0,0,0,2.19-1.6c.67-1.09.76-2.82.26-5.15A8,8,0,0,0,55.13,4a11.57,11.57,0,0,0-8.25-.82A190.27,190.27,0,0,1,47,23.23Zm5.13-1.44a7.07,7.07,0,0,1-.87-.06l-.3,0,0-.31c.09-1.56.13-2.76.13-3.58V17.4l.4.09c1.89.43,2.84,1.3,2.83,2.59h0a1.63,1.63,0,0,1-.52,1.23A2.54,2.54,0,0,1,52.1,21.79Zm-.49-.67a2.46,2.46,0,0,0,1.75-.3,1,1,0,0,0,.29-.75c0-.87-.61-1.47-1.92-1.84C51.72,19,51.68,19.94,51.61,21.12Zm0-6.92h-.45v-.33c.07-2,.07-3.83,0-5.34l0-.37.37,0c2.62.25,4,1.32,4,3.19a2.45,2.45,0,0,1-.69,1.86A4.36,4.36,0,0,1,51.63,14.2Zm.22-5.32c0,1.36,0,2.92,0,4.67a3.68,3.68,0,0,0,2.53-.76,1.89,1.89,0,0,0,.5-1.4C54.86,10,53.87,9.15,51.85,8.88Z"/><path class="cls-1" d="M66.85,6a21.21,21.21,0,0,0-1.11,5.35c-.15,1.85.44,2.76,1.78,2.74s2-1,2-2.95a28.21,28.21,0,0,0-.43-5.52A10.24,10.24,0,0,1,74,5.32a69.86,69.86,0,0,1,.44,7.54,16.23,16.23,0,0,1-1.23,7,5.89,5.89,0,0,1-4.07,3.47q-2.79.67-5.64-2.41t-2.32-9.42c.37-4.22,1.07-7,2.12-8.33A22.07,22.07,0,0,1,66.85,6Z"/><path class="cls-2" d="M68.1,23.73c-1.62,0-3.25-.89-4.87-2.64-2-2.12-2.77-5.37-2.4-9.67S61.92,4.31,63,2.92l.18-.23.25.15a23.26,23.26,0,0,1,3.64,2.94l.15.15-.07.2a20.52,20.52,0,0,0-1.1,5.26,2.68,2.68,0,0,0,.41,2,1.26,1.26,0,0,0,1,.35c.72,0,1.69-.3,1.73-2.62a28.31,28.31,0,0,0-.43-5.46l-.06-.29L69,5.33A10.53,10.53,0,0,1,74,5l.23,0,0,.24a70.47,70.47,0,0,1,.45,7.58A16.72,16.72,0,0,1,73.47,20a6.21,6.21,0,0,1-4.28,3.64A4.53,4.53,0,0,1,68.1,23.73ZM63.36,3.55c-.91,1.37-1.54,4-1.88,7.93-.36,4.1.39,7.19,2.22,9.17S67.31,23.38,69,23a5.5,5.5,0,0,0,3.84-3.28,15.94,15.94,0,0,0,1.2-6.82,68.24,68.24,0,0,0-.41-7.26,9.82,9.82,0,0,0-4.17.27,28.5,28.5,0,0,1,.39,5.3c0,2.66-1.31,3.24-2.37,3.26A2,2,0,0,1,66,13.87a3.2,3.2,0,0,1-.59-2.53,21.32,21.32,0,0,1,1.07-5.23A24.72,24.72,0,0,0,63.36,3.55Z"/><path class="cls-1" d="M80.29,14.63A70,70,0,0,0,81.53,22a48.11,48.11,0,0,0-6.15,2.36q-.81-6.85-.46-22.26Q80.29-.25,84.37.93T88.54,6q.09,3.9-4.1,6.45A48.79,48.79,0,0,0,89.51,18a43.51,43.51,0,0,0-3.22,5A64.56,64.56,0,0,1,80.29,14.63Zm-.86-9,.26,4.14c2.64-.56,3.88-1.54,3.72-3S81.92,5,79.43,5.63Z"/><path class="cls-2" d="M75.11,24.87l0-.45c-.54-4.56-.7-12.07-.46-22.31V1.9l.19-.08c3.64-1.6,6.89-2,9.67-1.2S88.8,3.25,88.86,6s-1.27,4.82-4,6.55a51.57,51.57,0,0,0,4.83,5.27l.2.19-.16.23a44.45,44.45,0,0,0-3.21,5l-.23.42-.3-.37a66.87,66.87,0,0,1-5.25-7.2c.22,1.61.57,3.58,1,5.87l.07.29-.29.09a46.52,46.52,0,0,0-6.1,2.35Zm.13-22.54a182.71,182.71,0,0,0,.42,21.57,46.36,46.36,0,0,1,5.49-2.1A69.29,69.29,0,0,1,80,14.66l-.14-1.46.74,1.27a64.8,64.8,0,0,0,5.66,8,46.24,46.24,0,0,1,2.86-4.43,44.52,44.52,0,0,1-4.91-5.44l-.2-.28.29-.18c2.71-1.65,4-3.67,4-6.16s-1.35-4-3.94-4.77S78.66.87,75.24,2.33Zm4.15,7.84-.3-4.79.26-.07c1.71-.43,2.9-.4,3.62.11a1.77,1.77,0,0,1,.76,1.35c.18,1.61-1.15,2.73-4,3.32Zm.38-4.29L80,9.37c2.18-.52,3.22-1.37,3.09-2.52A1.14,1.14,0,0,0,82.6,6,3.83,3.83,0,0,0,79.77,5.88Z"/><path class="cls-1" d="M103.21,23.69v.17q-7.25,1.26-10-.58c-1.81-1.23-2.87-4-3.17-8.21s.73-7.7,3.11-10.37,5.36-3.2,9-1.6q-.37,3.14-.86,6a4.73,4.73,0,0,0-3.4-.33,3.37,3.37,0,0,0-2,2.62,4.51,4.51,0,0,0,.71,3.86,2.45,2.45,0,0,0,1.1.87l-.33-4.63,5.2-.64.61,12.86Z"/><path class="cls-2" d="M98.05,24.7a8.86,8.86,0,0,1-5-1.15c-1.89-1.28-3-4.13-3.31-8.45s.76-7.89,3.18-10.61,5.61-3.34,9.36-1.68l.22.09,0,.24c-.25,2.08-.54,4.11-.86,6l-.07.41-.38-.16A4.41,4.41,0,0,0,98,9.08a3,3,0,0,0-1.77,2.39,4.18,4.18,0,0,0,.65,3.6,1.79,1.79,0,0,0,.48.47l-.32-4.34,5.86-.71.67,14.18-.4-.48A30.65,30.65,0,0,1,98.05,24.7Zm.3-22.18a6.41,6.41,0,0,0-4.92,2.4c-2.3,2.59-3.32,6-3,10.13s1.31,6.8,3,8,4.87,1.34,9.43.58l-.06-.89,0,0-.55-11.52-4.54.55.35,4.86-.5-.21a2.88,2.88,0,0,1-1.24-1,4.83,4.83,0,0,1-.75-4.13A3.63,3.63,0,0,1,97.8,8.47a4.74,4.74,0,0,1,3.25.18c.28-1.71.54-3.5.77-5.35A9,9,0,0,0,98.35,2.52Z"/><path class="cls-1" d="M109.58,6a21.22,21.22,0,0,0-1.12,5.35c-.14,1.85.45,2.76,1.78,2.74s2-1,2.05-2.95a28.2,28.2,0,0,0-.44-5.52,10.25,10.25,0,0,1,4.84-.32,69.69,69.69,0,0,1,.45,7.54,16.38,16.38,0,0,1-1.24,7,5.87,5.87,0,0,1-4.06,3.47q-2.79.67-5.65-2.41t-2.31-9.42c.37-4.22,1.07-7,2.12-8.33A22.07,22.07,0,0,1,109.58,6Z"/><path class="cls-2" d="M110.83,23.73c-1.62,0-3.26-.89-4.88-2.64-2-2.12-2.76-5.37-2.39-9.67s1.09-7.11,2.18-8.5l.18-.23.24.15a22.8,22.8,0,0,1,3.64,2.94l.16.15-.07.2a20.52,20.52,0,0,0-1.1,5.26,2.68,2.68,0,0,0,.41,2,1.25,1.25,0,0,0,1,.35c.72,0,1.69-.3,1.72-2.62a27.54,27.54,0,0,0-.43-5.46l0-.29.28-.08a10.5,10.5,0,0,1,5-.33L117,5l0,.24a70.47,70.47,0,0,1,.45,7.58A16.73,16.73,0,0,1,116.2,20a6.21,6.21,0,0,1-4.28,3.64A4.59,4.59,0,0,1,110.83,23.73ZM106.08,3.55c-.91,1.37-1.54,4-1.88,7.93-.35,4.1.4,7.19,2.23,9.17S110,23.38,111.76,23a5.52,5.52,0,0,0,3.85-3.28,16.09,16.09,0,0,0,1.2-6.82,68.24,68.24,0,0,0-.41-7.26,9.87,9.87,0,0,0-4.18.27,28.5,28.5,0,0,1,.39,5.3c0,2.66-1.3,3.24-2.36,3.26a2,2,0,0,1-1.53-.56,3.24,3.24,0,0,1-.58-2.53,21.32,21.32,0,0,1,1.07-5.23A24,24,0,0,0,106.08,3.55Z"/><path class="cls-1" d="M117.69,23.07a146.68,146.68,0,0,0-.4-19.1,32.11,32.11,0,0,0,11.17-.37q-.26,2.73-.4,5.88a20,20,0,0,1-6,.82l0,.95a14.31,14.31,0,0,0,5.8-.22c.11,1.86.16,3.65.16,5.36a15.13,15.13,0,0,1-6,.3L122,18a12.69,12.69,0,0,0,6-.23c.16,2.3.37,4.47.63,6.49A14.92,14.92,0,0,1,117.69,23.07Z"/><path class="cls-2" d="M124.61,25.1a15.56,15.56,0,0,1-7.06-1.74l-.19-.09v-.21A148,148,0,0,0,117,4l0-.41.41.07a32,32,0,0,0,11.06-.37l.42-.08,0,.43c-.16,1.81-.3,3.79-.4,5.86v.24l-.23.06a21.6,21.6,0,0,1-5.77.85V11a14.85,14.85,0,0,0,5.42-.28l.36-.07,0,.37c.1,1.86.16,3.67.16,5.38v.27l-.26.05a17,17,0,0,1-5.75.37l0,.64a13.1,13.1,0,0,0,5.58-.3l.37-.08,0,.38c.15,2.28.36,4.46.62,6.47l0,.28-.28.08A15.81,15.81,0,0,1,124.61,25.1ZM118,22.88A14.66,14.66,0,0,0,128.23,24c-.23-1.83-.42-3.8-.56-5.85a12.58,12.58,0,0,1-5.79.14l-.25-.07.11-1.93.37.09a14.31,14.31,0,0,0,5.59-.25c0-1.5-.06-3.08-.14-4.71a13.66,13.66,0,0,1-5.58.15l-.24-.06,0-1.55.35,0a19,19,0,0,0,5.68-.76c.09-1.83.21-3.59.36-5.22a32.77,32.77,0,0,1-10.45.35A148.64,148.64,0,0,1,118,22.88Z"/><path class="cls-1" d="M140.59.42a53.21,53.21,0,0,1,.24,5.67c-4.93,2-6.71,3.26-5.34,3.78q7.78,1.28,7.78,4.33t-3.22,5.71a49.82,49.82,0,0,1-8.49,5.42c-.51-2.58-1.08-5.16-1.71-7.71,5.67-1.08,7.28-1.88,4.86-2.39q-5-.12-5.41-5.88T140.59.42Z"/><path class="cls-2" d="M131.33,25.82l-.09-.43c-.51-2.57-1.08-5.16-1.7-7.69l-.08-.34.33-.06c4.29-.82,5.36-1.31,5.62-1.51a2.6,2.6,0,0,0-.77-.24c-3.48-.08-5.41-2.16-5.67-6.17S132.59,2.26,140.5.1l.37-.1,0,.39a54,54,0,0,1,.24,5.7v.22l-.2.08c-5.48,2.22-5.59,3-5.58,3s.06.08.24.14c5.35.88,8,2.4,8,4.64s-1.13,4.13-3.34,6a50.52,50.52,0,0,1-8.55,5.46Zm-1.08-7.95c.55,2.3,1.07,4.64,1.54,7a49.15,49.15,0,0,0,8.06-5.18c2.05-1.7,3.1-3.53,3.1-5.46s-2.53-3.19-7.51-4c-.6-.22-.72-.53-.72-.76,0-.59.68-1.48,5.79-3.56,0-1.49-.06-3.18-.21-5-7.32,2.06-10.91,4.92-10.68,8.5s1.91,5.5,5.09,5.57c.73.15,1.42.37,1.42.87S135.66,16.82,130.25,17.87Z"/><path class="cls-1" d="M153.08,4.58q2.14,8.61,5,16.82l-5.05,3L152,19.81l-3.23-.46c-.2,2.29-.37,3.81-.5,4.56l-2.35-1.61-2.49-1.22q2.3-9.69,3.8-17.44Zm-4,9.45,1.89.28L149.68,9Z"/><path class="cls-2" d="M152.85,24.89,151.7,20.1,149,19.72c-.2,2.1-.36,3.53-.48,4.25l-.09.49-2.77-1.89L143,21.25l.06-.25c1.53-6.43,2.81-12.29,3.8-17.42l.06-.31,6.41,1,0,.21c1.42,5.7,3.12,11.35,5,16.79l.09.25ZM148.44,19l3.79.53,1.05,4.37,4.44-2.63c-1.86-5.31-3.51-10.82-4.9-16.39L147.45,4c-1,5-2.21,10.68-3.69,16.89L146,22l2,1.34c.12-.84.26-2.19.43-4Zm2.94-4.28-2.68-.4.88-7.12Zm-2-.95,1.1.17-.74-3.09Z"/><path class="cls-1" d="M169.27.42a50.69,50.69,0,0,1,.24,5.67c-4.92,2-6.7,3.26-5.33,3.78Q172,11.15,172,14.2t-3.22,5.71a49.82,49.82,0,0,1-8.49,5.42c-.52-2.58-1.09-5.16-1.71-7.71Q167,16,163.39,15.23c-3.35-.08-5.16-2-5.41-5.88S161.5,2.54,169.27.42Z"/><path class="cls-2" d="M160,25.82l-.08-.43c-.51-2.57-1.09-5.16-1.7-7.69l-.08-.34.33-.06c4.28-.82,5.36-1.31,5.62-1.51a2.6,2.6,0,0,0-.77-.24c-3.48-.08-5.41-2.16-5.67-6.17S161.28,2.26,169.19.1l.37-.1,0,.39a54,54,0,0,1,.24,5.7v.22l-.2.08c-5.48,2.22-5.59,3-5.58,3s.06.08.23.14c5.36.88,8,2.4,8,4.64s-1.12,4.13-3.33,6a50.93,50.93,0,0,1-8.55,5.46Zm-1.07-7.95c.55,2.3,1.07,4.64,1.54,7a49.15,49.15,0,0,0,8.06-5.18c2.05-1.7,3.09-3.53,3.09-5.46s-2.52-3.19-7.5-4c-.6-.22-.72-.53-.72-.76,0-.59.68-1.48,5.78-3.56,0-1.49-.05-3.18-.21-5-7.31,2.06-10.91,4.92-10.67,8.5s1.9,5.5,5.09,5.57c.73.15,1.42.37,1.41.87S164.34,16.82,158.94,17.87Z"/></g></g></svg>