<svg xmlns="http://www.w3.org/2000/svg" viewBox="0 0 130.97 26.19"><defs><style>.cls-1{fill:#ff0;}.cls-2{fill:#1d1d1b;}</style></defs><title>KIDS MENU_1</title><g id="Capa_2" data-name="Capa 2"><g id="Capa_3" data-name="Capa 3"><path class="cls-1" d="M10.48,14.7l5.1,5.19a45.35,45.35,0,0,0-3.78,5L7,19l-.35-.42c0,1.45,0,3.24-.12,5.36q-2.84-.3-6.13-.47.84-10.22,1-18a37,37,0,0,0,5.4-1.74C6.88,5.61,7,7.4,7,9.19a26.39,26.39,0,0,0,3.62-5.12,23.29,23.29,0,0,1,4.76,4,40.17,40.17,0,0,1-5.18,6.32Z"/><path class="cls-2" d="M11.83,25.48,6.94,19.53c0,1.28-.05,2.77-.13,4.47l0,.35-.34,0c-1.87-.21-3.93-.37-6.12-.47l-.33,0,0-.33C.58,16.71.9,10.67,1,5.55V5.3l.25-.06A40.38,40.38,0,0,0,6.59,3.51L7,3.35l0,.43c.15,1.53.23,3.06.25,4.58a32.28,32.28,0,0,0,3-4.46l.17-.28.28.17a23.41,23.41,0,0,1,4.82,4l.18.2-.15.21a45.09,45.09,0,0,1-5,6.14l.08.09,5.1,5.2.21.21-.19.23a43.85,43.85,0,0,0-3.76,5ZM6.26,17.71l.94,1.12,4.57,5.55a45.5,45.5,0,0,1,3.37-4.47c-1.76-1.79-3.4-3.45-4.89-5l-.57-.57.26-.22a40.14,40.14,0,0,0,5-6.05,23.19,23.19,0,0,0-4.23-3.56,25.69,25.69,0,0,1-3.5,4.9L6.63,10V9.18c0-1.62-.06-3.27-.2-4.91a39.12,39.12,0,0,1-4.8,1.54c-.09,5-.4,10.85-.93,17.39,1.94.11,3.78.25,5.47.43.1-2,.13-3.64.11-5Z"/><path class="cls-1" d="M23.05,8.94a77.92,77.92,0,0,0,.35,14.52,28.83,28.83,0,0,0-6.62.52,51.23,51.23,0,0,1,.13-15.29A24.15,24.15,0,0,1,23.05,8.94ZM21.77.52a2.26,2.26,0,0,1,1.47,1.67,3.22,3.22,0,0,1-.51,2.46,4.53,4.53,0,0,1-2.18,1.82A3.4,3.4,0,0,1,18,6.59a2.25,2.25,0,0,1-1.47-1.66A3.21,3.21,0,0,1,17,2.46,4.51,4.51,0,0,1,19.2.64,3.4,3.4,0,0,1,21.77.52Z"/><path class="cls-2" d="M16.51,24.37,16.46,24a52.23,52.23,0,0,1,.12-15.39l0-.25.26,0a24.78,24.78,0,0,1,6.22.26l.29.05,0,.3a78.05,78.05,0,0,0,.35,14.45l.05.38-.38,0a28.62,28.62,0,0,0-6.54.52ZM17.19,9a51.46,51.46,0,0,0-.13,14.61,29.64,29.64,0,0,1,6-.48,79.34,79.34,0,0,1-.32-13.9A24.05,24.05,0,0,0,17.19,9Zm1.88-1.88a3.33,3.33,0,0,1-1.21-.22A2.53,2.53,0,0,1,16.2,5a3.55,3.55,0,0,1,.55-2.72A4.84,4.84,0,0,1,19.08.34,3.73,3.73,0,0,1,21.89.22h0a2.54,2.54,0,0,1,1.66,1.9A3.51,3.51,0,0,1,23,4.82a4.84,4.84,0,0,1-2.33,1.95A4.15,4.15,0,0,1,19.07,7.11ZM20.68.65a3.51,3.51,0,0,0-1.36.29,4.28,4.28,0,0,0-2,1.69,2.91,2.91,0,0,0-.47,2.23A1.9,1.9,0,0,0,18.1,6.28a3,3,0,0,0,2.33-.11,4.19,4.19,0,0,0,2-1.69,2.89,2.89,0,0,0,.47-2.22A1.91,1.91,0,0,0,21.66.83,2.74,2.74,0,0,0,20.68.65Z"/><path class="cls-1" d="M23.79,3.37q7.42-1.23,11.39,3.37t2.58,11.61q-1.38,7-14.12,6.11Q24.12,13.41,23.79,3.37Zm8.79,11.14q-.18-3.36-3.41-3.46c.11,2.11.14,4.43.06,7Q32.77,17.86,32.58,14.51Z"/><path class="cls-2" d="M26.34,24.88c-.86,0-1.77,0-2.72-.1l-.32,0,0-.32c.31-7.32.36-14.41.15-21.06V3.09l.28,0c5.05-.84,9,.33,11.69,3.48S39,13.66,38.08,18.41C37.23,22.71,33.28,24.88,26.34,24.88ZM24,24.15c8.07.51,12.59-1.46,13.46-5.87S37.5,9.93,34.93,7s-6.13-4-10.8-3.31C24.33,10.13,24.28,17,24,24.15Zm4.92-5.79V18c.07-2.52.05-4.86-.07-6.94l0-.36.36,0c2.3.07,3.59,1.37,3.73,3.76h0a3.69,3.69,0,0,1-.78,2.74,4,4,0,0,1-2.88,1.11Zm.61-7c.09,1.91.11,4,.06,6.27a3.12,3.12,0,0,0,2.07-.88,3,3,0,0,0,.62-2.27h0C32.15,12.6,31.25,11.57,29.51,11.4Z"/><path class="cls-1" d="M52.27.8a45.2,45.2,0,0,1,.28,5.67q-8.65,3-6.25,3.78,9.12,1.29,9.11,4.34t-3.76,5.7a60,60,0,0,1-9.95,5.42c-.61-2.58-1.27-5.15-2-7.71q9.94-1.62,5.68-2.39-5.9-.12-6.34-5.87T52.27.8Z"/><path class="cls-2" d="M41.47,26.17l-.09-.38c-.6-2.56-1.27-5.15-2-7.7l-.1-.35.37-.06c4.89-.79,6.23-1.29,6.59-1.51a4.81,4.81,0,0,0-.92-.24c-4.06-.08-6.3-2.15-6.6-6.17S42.82,2.67,52.19.48L52.55.4l0,.37a45.79,45.79,0,0,1,.29,5.71v.23l-.21.07c-6.07,2.1-6.53,2.88-6.56,3a.93.93,0,0,0,.3.13c6.27.88,9.34,2.4,9.34,4.65s-1.31,4.14-3.91,6a61.31,61.31,0,0,1-10,5.45Zm-1.36-7.9c.65,2.31,1.26,4.66,1.81,7A60.57,60.57,0,0,0,51.46,20c2.41-1.7,3.63-3.53,3.63-5.44s-3.06-3.2-8.84-4c-.54-.17-.79-.42-.8-.76,0-.62.82-1.49,6.78-3.57a44,44,0,0,0-.25-5C43.34,3.27,39.09,6.13,39.37,9.71s2.25,5.5,6,5.58c1,.17,1.6.38,1.6.87S47,17.13,40.11,18.27Z"/><path class="cls-1" d="M80.26,3.34Q81.61,11.2,84,21.78a18.35,18.35,0,0,0-5.59,2.45,69.6,69.6,0,0,1-2.13-7.87l-.79,1.39L73.64,21l-1.89-4.66q-.1,5-.56,9.45A17.41,17.41,0,0,1,65,25.4q.6-10.23.6-20.17a19.75,19.75,0,0,1,5.08-1q1.17,2.49,3.11,7.82a75.21,75.21,0,0,0,2.68-9.71A17.71,17.71,0,0,1,80.26,3.34Z"/><path class="cls-2" d="M68.89,26.19a13.08,13.08,0,0,1-4-.48l-.23-.08v-.25c.39-6.78.59-13.56.59-20.15V5l.23-.08a19.86,19.86,0,0,1,5.16-1h.22l.09.2c.72,1.52,1.67,3.87,2.82,7a80.41,80.41,0,0,0,2.36-8.81l.06-.3.3,0a17.72,17.72,0,0,1,3.86,1l.17.06,0,.18c.89,5.21,2.17,11.41,3.78,18.43l.07.32-.32.07a18.26,18.26,0,0,0-5.49,2.4l-.32.21-.15-.36a63.22,63.22,0,0,1-2-7.11l-.37.67-2.23,3.81L72,17.89c-.1,2.78-.27,5.44-.53,7.92l0,.28h-.27C70.37,26.16,69.6,26.19,68.89,26.19Zm-3.54-1a17.84,17.84,0,0,0,5.54.3c.29-2.84.47-5.92.54-9.15l0-1.57,2.24,5.5,2.74-4.78.19.81c.9,3.8,1.57,6.3,2,7.47a18.82,18.82,0,0,1,5-2.21c-1.56-6.82-2.8-12.86-3.68-18a17.23,17.23,0,0,0-3.24-.82,75.89,75.89,0,0,1-2.62,9.45l-.3.84-.31-.84c-1.23-3.38-2.25-5.93-3-7.59a18.94,18.94,0,0,0-4.55.85C65.93,11.91,65.73,18.53,65.35,25.17Z"/><path class="cls-1" d="M84.65,23.46a126,126,0,0,0-.48-19.11A44.3,44.3,0,0,0,97.26,4c-.2,1.82-.36,3.77-.47,5.87a27.21,27.21,0,0,1-7.05.83l0,.94a19.3,19.3,0,0,0,6.79-.22c.12,1.87.19,3.65.19,5.36a20.21,20.21,0,0,1-7,.3l-.08,1.28a17.33,17.33,0,0,0,7-.22q.27,3.45.73,6.49A20.22,20.22,0,0,1,84.65,23.46Z"/><path class="cls-2" d="M92.75,25.48a20.77,20.77,0,0,1-8.23-1.72l-.21-.09v-.23a125.29,125.29,0,0,0-.47-19.06l0-.41.41.06a44.32,44.32,0,0,0,13-.36l.42-.07,0,.42c-.19,1.8-.35,3.77-.47,5.86v.24l-.24.06a28.09,28.09,0,0,1-6.79.84v.35a20.84,20.84,0,0,0,6.43-.28l.35-.05,0,.35c.13,1.86.19,3.67.19,5.38v.28l-.27.05a22.28,22.28,0,0,1-6.76.35l0,.65a18.1,18.1,0,0,0,6.62-.29l.35-.07,0,.36c.18,2.29.43,4.47.73,6.47l0,.3-.29.07A21.25,21.25,0,0,1,92.75,25.48ZM85,23.25A20,20,0,0,0,97,24.37c-.27-1.83-.49-3.8-.66-5.86a17.16,17.16,0,0,1-6.8.16l-.27-.06.13-1.93.36.07a19.73,19.73,0,0,0,6.62-.25c0-1.5-.06-3.09-.16-4.71a19.19,19.19,0,0,1-6.57.16l-.24-.06,0-1.55.36,0a26.42,26.42,0,0,0,6.72-.76c.1-1.85.24-3.6.41-5.22a45.28,45.28,0,0,1-12.35.35A127.33,127.33,0,0,1,85,23.25Z"/><path class="cls-1" d="M103.47,1.77a54.67,54.67,0,0,0,4,11,68.55,68.55,0,0,1,1.07-10.25c3.21.52,5.15.89,5.79,1.1a137.9,137.9,0,0,0-1,19.22l-6,1.74a62.38,62.38,0,0,1-4.13-8.3q-.39,3.95-.47,8.45a12.44,12.44,0,0,1-5-2.2A143.52,143.52,0,0,1,99.39,3,10.6,10.6,0,0,1,103.47,1.77Z"/><path class="cls-2" d="M103.09,25.17l-.39-.08a13,13,0,0,1-5.1-2.26l-.13-.1v-.17A144.08,144.08,0,0,1,99.07,3l0-.17.15-.07a10.74,10.74,0,0,1,4.22-1.29h.25l.07.24a54,54,0,0,0,3.45,9.83,62.75,62.75,0,0,1,1-9l.07-.3.3.05a55.52,55.52,0,0,1,5.85,1.12l.25.08,0,.27a137.14,137.14,0,0,0-1,19.17v.24L107.22,25l-.13-.22a75.9,75.9,0,0,1-3.65-7.09c-.19,2.24-.3,4.61-.35,7.08Zm-5-2.77a11.89,11.89,0,0,0,4.32,2c.06-2.84.22-5.56.47-8.08l.14-1.41.49,1.33a59.13,59.13,0,0,0,4,8l5.54-1.61A140.16,140.16,0,0,1,114,3.9c-.78-.21-2.52-.54-5.18-1a71.8,71.8,0,0,0-1,9.89l-.06,1.25L107.2,13a55.47,55.47,0,0,1-4-10.84,11,11,0,0,0-3.53,1.14A141.38,141.38,0,0,0,98.13,22.4Z"/><path class="cls-1" d="M121.79,6.4a18.63,18.63,0,0,0-1.31,5.35c-.17,1.86.53,2.77,2.09,2.74s2.36-1,2.4-2.94A24.07,24.07,0,0,0,124.45,6a13.83,13.83,0,0,1,5.67-.33,58.23,58.23,0,0,1,.52,7.54,14.3,14.3,0,0,1-1.44,7,6.69,6.69,0,0,1-4.76,3.46c-2.18.46-4.38-.34-6.62-2.4s-3.13-5.21-2.7-9.43,1.25-7,2.47-8.33A26.65,26.65,0,0,1,121.79,6.4Z"/><path class="cls-2" d="M123.25,24.11a8.5,8.5,0,0,1-5.65-2.61c-2.3-2.13-3.24-5.39-2.81-9.7s1.28-7.12,2.56-8.52l.17-.18.22.11A27.89,27.89,0,0,1,122,6.15l.19.15-.1.23a18.18,18.18,0,0,0-1.28,5.25,2.47,2.47,0,0,0,.4,1.94,1.7,1.7,0,0,0,1.35.45c.87,0,2-.31,2.08-2.63a22.9,22.9,0,0,0-.51-5.44l-.06-.31.3-.08a14.5,14.5,0,0,1,5.81-.33l.23,0,0,.24a60.6,60.6,0,0,1,.52,7.58,14.57,14.57,0,0,1-1.49,7.11,7,7,0,0,1-5,3.63A6,6,0,0,1,123.25,24.11Zm-5.58-20.2c-1.08,1.34-1.83,4-2.23,8C115,16,115.9,19,118,21s4.27,2.76,6.33,2.32a6.29,6.29,0,0,0,4.54-3.3,13.89,13.89,0,0,0,1.41-6.79A58.15,58.15,0,0,0,129.83,6a13.63,13.63,0,0,0-5,.28,24.58,24.58,0,0,1,.46,5.29c-.05,2.65-1.5,3.24-2.72,3.26a2.34,2.34,0,0,1-1.84-.66,3.09,3.09,0,0,1-.57-2.44,18.61,18.61,0,0,1,1.24-5.21A26.8,26.8,0,0,0,117.67,3.91Z"/></g></g></svg>