<svg xmlns="http://www.w3.org/2000/svg" viewBox="0 0 84.83 25.77"><defs><style>.cls-1{fill:#ff0;}.cls-2{fill:#1d1d1b;}</style></defs><title>OTROS_1</title><g id="Capa_2" data-name="Capa 2"><g id="Capa_3" data-name="Capa 3"><path class="cls-1" d="M6.34,22.23a10.88,10.88,0,0,1-5-5.73A11.22,11.22,0,0,1,.78,8.79a7.67,7.67,0,0,1,4.31-5.2A7.3,7.3,0,0,1,11.72,4a10.93,10.93,0,0,1,5,5.72,11.4,11.4,0,0,1,.52,7.73A7.68,7.68,0,0,1,13,22.61,7.33,7.33,0,0,1,6.34,22.23ZM8.79,15a1.32,1.32,0,0,0,1.28-.65,2.27,2.27,0,0,0,.28-1.74,3.53,3.53,0,0,0-.9-1.81,2.39,2.39,0,0,0-1.56-.84,1.36,1.36,0,0,0-1.28.63,2.41,2.41,0,0,0-.26,1.75,3.53,3.53,0,0,0,.9,1.82A2.31,2.31,0,0,0,8.79,15Z"/><path class="cls-2" d="M10.11,23.55a8.41,8.41,0,0,1-3.92-1h0A11.32,11.32,0,0,1,1,16.63,11.64,11.64,0,0,1,.47,8.69,8,8,0,0,1,5,3.3a7.64,7.64,0,0,1,6.91.39,11.29,11.29,0,0,1,5.2,5.89,11.7,11.7,0,0,1,.53,7.94,8,8,0,0,1-4.5,5.39A7.38,7.38,0,0,1,10.11,23.55ZM6.49,22a7.05,7.05,0,0,0,6.35.36,7.38,7.38,0,0,0,4.14-5,11.1,11.1,0,0,0-.51-7.5,10.65,10.65,0,0,0-4.9-5.56,7,7,0,0,0-6.35-.38,7.41,7.41,0,0,0-4.13,5,11,11,0,0,0,.5,7.5A10.75,10.75,0,0,0,6.49,22Zm2.42-6.66H8.77A2.6,2.6,0,0,1,7,14.34a3.87,3.87,0,0,1-1-2,2.72,2.72,0,0,1,.31-2A1.65,1.65,0,0,1,7.92,9.6a2.6,2.6,0,0,1,1.76.94,3.85,3.85,0,0,1,1,2,2.58,2.58,0,0,1-.33,2A1.64,1.64,0,0,1,8.91,15.29Zm-1.14-5a1,1,0,0,0-.89.49,2.1,2.1,0,0,0-.21,1.52,3.19,3.19,0,0,0,.82,1.65,2,2,0,0,0,1.32.73h0a1,1,0,0,0,1-.5,1.9,1.9,0,0,0,.24-1.5A3.19,3.19,0,0,0,9.21,11a2.08,2.08,0,0,0-1.34-.74Z"/><path class="cls-1" d="M32.2,1.66A67.44,67.44,0,0,1,32.86,11a40.93,40.93,0,0,1-5.1-.17q.54,7.13.44,13.08a46.32,46.32,0,0,0-5.82-1.24,72.83,72.83,0,0,0,0-11.76l-3.9-.11-1.27-7A151.13,151.13,0,0,1,32.2,1.66Z"/><path class="cls-2" d="M28.52,24.31l-.4-.11A45.8,45.8,0,0,0,22.34,23l-.3,0,0-.3A74.75,74.75,0,0,0,22,11.2l-3.87-.11L16.79,3.48l.32-.06c4.16-.83,9.23-1.53,15.06-2.09l.31,0,0,.32A66.4,66.4,0,0,1,33.18,11v.31h-.31a45.67,45.67,0,0,1-4.76-.14c.34,4.6.48,8.88.42,12.73Zm-5.79-1.95a46.53,46.53,0,0,1,5.15,1.1c.05-3.83-.1-8.08-.45-12.64l0-.39.39,0a37.37,37.37,0,0,0,4.75.18A68.69,68.69,0,0,0,31.91,2c-5.53.54-10.36,1.2-14.36,2l1.16,6.46,3.93.11,0,.29A75.61,75.61,0,0,1,22.73,22.36Z"/><path class="cls-1" d="M39.8,14.62A60.57,60.57,0,0,0,41.25,22a62.39,62.39,0,0,0-7.2,2.37q-1-6.87-.54-22.27Q39.8-.25,44.58.91c3.19.79,4.81,2.48,4.88,5.07s-1.53,4.75-4.8,6.45A51,51,0,0,0,50.6,18a45.35,45.35,0,0,0-3.78,5A65.38,65.38,0,0,1,39.8,14.62Zm-1-9,.31,4.15q4.63-.84,4.35-3C43.26,5.38,41.7,5,38.79,5.61Z"/><path class="cls-2" d="M33.78,24.82l-.05-.41c-.64-4.56-.82-12.07-.55-22.32V1.87l.2-.07c4.24-1.59,8-2,11.27-1.2S49.71,3.23,49.79,6s-1.49,4.83-4.62,6.56a55.28,55.28,0,0,0,5.64,5.24l.25.21-.21.25a43.45,43.45,0,0,0-3.75,5l-.23.35-.28-.3a68.92,68.92,0,0,1-6.29-7.39c.25,1.64.68,3.67,1.26,6l.08.31-.31.08a61,61,0,0,0-7.16,2.35Zm0-22.49c-.26,9.8-.1,17,.49,21.58a65.39,65.39,0,0,1,6.53-2.14,60,60,0,0,1-1.37-7.11l-.15-1.3.74,1.08a65.49,65.49,0,0,0,6.7,8.1,46,46,0,0,1,3.37-4.48,50.21,50.21,0,0,1-5.73-5.42l-.26-.31.36-.19c3.13-1.63,4.69-3.7,4.63-6.15S47.56,2,44.5,1.23,37.86.85,33.83,2.33Zm5,7.81-.36-4.79.28-.06c2.08-.45,3.49-.39,4.3.18a1.83,1.83,0,0,1,.75,1.28c.21,1.62-1.34,2.74-4.61,3.33Zm.33-4.27.27,3.5C42,8.85,43.28,8,43.12,6.84A1.14,1.14,0,0,0,42.65,6C42,5.57,40.85,5.53,39.13,5.87Z"/><path class="cls-1" d="M56,22.23A10.88,10.88,0,0,1,51,16.5a11.28,11.28,0,0,1-.52-7.71,7.68,7.68,0,0,1,4.32-5.2A7.28,7.28,0,0,1,61.39,4a10.89,10.89,0,0,1,5,5.72A11.34,11.34,0,0,1,67,17.43a7.68,7.68,0,0,1-4.32,5.18A7.33,7.33,0,0,1,56,22.23ZM58.47,15a1.31,1.31,0,0,0,1.27-.65A2.27,2.27,0,0,0,60,12.57a3.55,3.55,0,0,0-.91-1.81,2.35,2.35,0,0,0-1.55-.84,1.34,1.34,0,0,0-1.28.63A2.41,2.41,0,0,0,56,12.3a3.6,3.6,0,0,0,.9,1.82A2.33,2.33,0,0,0,58.47,15Z"/><path class="cls-2" d="M59.78,23.55a8.4,8.4,0,0,1-3.91-1h0a11.28,11.28,0,0,1-5.2-5.89,11.64,11.64,0,0,1-.53-7.94,8,8,0,0,1,4.5-5.39,7.62,7.62,0,0,1,6.9.39,11.21,11.21,0,0,1,5.2,5.89,11.7,11.7,0,0,1,.54,7.94,8,8,0,0,1-4.5,5.39A7.39,7.39,0,0,1,59.78,23.55ZM56.17,22a7.05,7.05,0,0,0,6.35.36,7.4,7.4,0,0,0,4.14-5,11,11,0,0,0-.52-7.5,10.56,10.56,0,0,0-4.9-5.56,7,7,0,0,0-6.34-.38,7.35,7.35,0,0,0-4.13,5,10.92,10.92,0,0,0,.5,7.5A10.66,10.66,0,0,0,56.17,22Zm2.41-6.66h-.13a2.65,2.65,0,0,1-1.77-.94,4,4,0,0,1-1-2,2.77,2.77,0,0,1,.31-2,1.67,1.67,0,0,1,1.58-.78,2.62,2.62,0,0,1,1.77.94,3.85,3.85,0,0,1,1,2,2.54,2.54,0,0,1-.34,2A1.63,1.63,0,0,1,58.58,15.29Zm-1.13-5a1,1,0,0,0-.89.49,2.15,2.15,0,0,0-.22,1.52,3.27,3.27,0,0,0,.82,1.65,2,2,0,0,0,1.33.73h0a1,1,0,0,0,1-.5,1.94,1.94,0,0,0,.24-1.5A3.21,3.21,0,0,0,58.88,11a2.06,2.06,0,0,0-1.33-.74Z"/><path class="cls-1" d="M81.36.4a43.37,43.37,0,0,1,.28,5.67q-8.65,3-6.25,3.78,9.12,1.29,9.12,4.34t-3.77,5.7a60,60,0,0,1-9.95,5.42q-.9-3.87-2-7.71,9.94-1.62,5.69-2.39-5.91-.12-6.34-5.87T81.36.4Z"/><path class="cls-2" d="M70.56,25.77l-.09-.38c-.6-2.56-1.27-5.15-2-7.7l-.1-.35.36-.06c4.89-.79,6.23-1.29,6.59-1.51a4.62,4.62,0,0,0-.91-.24c-4.06-.08-6.3-2.15-6.61-6.17S71.91,2.27,81.29.08L81.65,0l0,.37A43.86,43.86,0,0,1,82,6.08V6.3l-.22.08c-6.07,2.1-6.53,2.88-6.55,3a.77.77,0,0,0,.29.13c6.27.88,9.34,2.4,9.34,4.65s-1.31,4.14-3.9,6a61.12,61.12,0,0,1-10,5.45ZM69.2,17.86c.66,2.32,1.27,4.67,1.82,7a60.1,60.1,0,0,0,9.53-5.22c2.41-1.7,3.63-3.53,3.63-5.44s-3.05-3.2-8.83-4c-.55-.17-.8-.42-.8-.76,0-.62.81-1.49,6.77-3.57a43.86,43.86,0,0,0-.24-5C72.43,2.87,68.19,5.73,68.46,9.31s2.25,5.5,6,5.58c1,.17,1.6.38,1.6.86S76.07,16.73,69.2,17.86Z"/></g></g></svg>