<svg xmlns="http://www.w3.org/2000/svg" viewBox="0 0 97.89 25.77"><defs><style>.cls-1{fill:#bdef76;}.cls-2{fill:#1d1d1b;}</style></defs><title>POLLOS_1</title><g id="Capa_2" data-name="Capa 2"><g id="Capa_3" data-name="Capa 3"><path class="cls-1" d="M11.33,1.08Q15.92,2.42,16,6.31a6.05,6.05,0,0,1-3.36,5.81,17.74,17.74,0,0,1-6,2.26A60.61,60.61,0,0,0,8.19,22,62.39,62.39,0,0,0,1,24.37Q0,17.5.45,2.1C4.65.53,8.27.18,11.33,1.08ZM5.73,5.61,6,9.76q4.64-.84,4.35-3C10.2,5.38,8.65,5,5.73,5.61Z"/><path class="cls-2" d="M.73,24.82l-.06-.41C0,19.84-.15,12.33.13,2.09V1.87L.34,1.8c4.24-1.6,8-1.94,11.08-1s4.86,2.8,4.93,5.54a6.36,6.36,0,0,1-3.52,6.1,18.84,18.84,0,0,1-5.77,2.25A64.29,64.29,0,0,0,8.5,21.93l.08.31-.31.08a60.39,60.39,0,0,0-7.16,2.35Zm0-22.49c-.26,9.79-.1,17,.49,21.58A65.56,65.56,0,0,1,7.8,21.77a58.15,58.15,0,0,1-1.42-7.36l0-.32.31,0a17.58,17.58,0,0,0,5.85-2.21A5.7,5.7,0,0,0,15.7,6.32c-.06-2.47-1.52-4.08-4.46-4.93S4.79.85.77,2.33Zm5,7.81L5.39,5.35l.27-.06c2.09-.45,3.49-.39,4.3.18a1.76,1.76,0,0,1,.75,1.28c.22,1.62-1.34,2.74-4.61,3.33Zm.34-4.27.26,3.5C9,8.84,10.22,8,10.07,6.84A1.18,1.18,0,0,0,9.59,6C9,5.57,7.8,5.53,6.08,5.87Z"/><path class="cls-1" d="M22.53,22.23a10.88,10.88,0,0,1-5.05-5.73A11.28,11.28,0,0,1,17,8.79a7.66,7.66,0,0,1,4.32-5.2A7.28,7.28,0,0,1,27.9,4,10.89,10.89,0,0,1,33,9.7a11.34,11.34,0,0,1,.53,7.73,7.68,7.68,0,0,1-4.32,5.18A7.33,7.33,0,0,1,22.53,22.23ZM25,15a1.31,1.31,0,0,0,1.27-.65,2.27,2.27,0,0,0,.29-1.74,3.55,3.55,0,0,0-.91-1.81,2.31,2.31,0,0,0-1.55-.84,1.32,1.32,0,0,0-1.28.63,2.41,2.41,0,0,0-.27,1.75,3.69,3.69,0,0,0,.9,1.82A2.33,2.33,0,0,0,25,15Z"/><path class="cls-2" d="M26.29,23.55a8.4,8.4,0,0,1-3.91-1h0a11.28,11.28,0,0,1-5.2-5.89,11.64,11.64,0,0,1-.53-7.94,8,8,0,0,1,4.5-5.39,7.62,7.62,0,0,1,6.9.39,11.21,11.21,0,0,1,5.2,5.89,11.7,11.7,0,0,1,.54,7.94,8,8,0,0,1-4.5,5.39A7.39,7.39,0,0,1,26.29,23.55ZM22.68,22a7.08,7.08,0,0,0,6.35.36,7.4,7.4,0,0,0,4.14-5,11,11,0,0,0-.52-7.5,10.53,10.53,0,0,0-4.9-5.56,7,7,0,0,0-6.34-.38,7.35,7.35,0,0,0-4.13,5,10.92,10.92,0,0,0,.5,7.5A10.66,10.66,0,0,0,22.68,22Zm2.41-6.66H25a2.65,2.65,0,0,1-1.77-.94,4,4,0,0,1-1-2,2.77,2.77,0,0,1,.31-2,1.69,1.69,0,0,1,1.58-.79,2.68,2.68,0,0,1,1.77.95,3.85,3.85,0,0,1,1,2,2.55,2.55,0,0,1-.34,2A1.63,1.63,0,0,1,25.09,15.29Zm-1.13-5a1,1,0,0,0-.89.49,2.15,2.15,0,0,0-.22,1.52,3.27,3.27,0,0,0,.82,1.65,2,2,0,0,0,1.33.73h0a1,1,0,0,0,1-.5,1.94,1.94,0,0,0,.24-1.5A3.27,3.27,0,0,0,25.4,11a2,2,0,0,0-1.34-.74Z"/><path class="cls-1" d="M41.7,2.2l0,.43a53.84,53.84,0,0,0-.48,11.42A18.76,18.76,0,0,1,48.06,14q0,4.14.35,8a26.88,26.88,0,0,0-13,2.53q-.7-11-.53-20.84A32.3,32.3,0,0,1,41.7,2.2Z"/><path class="cls-2" d="M35.12,25l0-.48c-.46-7.29-.64-14.31-.52-20.86V3.45l.23-.07a32.17,32.17,0,0,1,6.89-1.51l.37,0,0,.8a53.26,53.26,0,0,0-.51,11,19.76,19.76,0,0,1,6.62,0l.28,0V14c0,2.74.11,5.43.35,8l0,.37H48.4a26.63,26.63,0,0,0-12.85,2.49ZM35.2,3.94c-.1,6.32.07,13.08.5,20.09a27.36,27.36,0,0,1,12.36-2.36c-.21-2.4-.32-4.89-.32-7.42a18.1,18.1,0,0,0-6.48.12l-.38.09,0-.39a54.43,54.43,0,0,1,.49-11.49v0A33.48,33.48,0,0,0,35.2,3.94Z"/><path class="cls-1" d="M55.54,2.2l0,.43A53.84,53.84,0,0,0,55,14.05,18.76,18.76,0,0,1,61.9,14q0,4.14.35,8a26.88,26.88,0,0,0-13,2.53q-.7-11-.53-20.84A32.3,32.3,0,0,1,55.54,2.2Z"/><path class="cls-2" d="M49,25l0-.48c-.46-7.29-.64-14.31-.52-20.86V3.45l.23-.07a32.17,32.17,0,0,1,6.89-1.51l.37,0,0,.8a53.26,53.26,0,0,0-.51,11,19.76,19.76,0,0,1,6.62,0l.28,0V14c0,2.74.11,5.43.35,8l0,.37h-.37a26.63,26.63,0,0,0-12.85,2.49ZM49,3.94c-.1,6.32.07,13.08.5,20.09A27.36,27.36,0,0,1,61.9,21.67c-.21-2.4-.32-4.89-.32-7.42a18.1,18.1,0,0,0-6.48.12l-.38.09,0-.39a54.43,54.43,0,0,1,.49-11.49v0A33.37,33.37,0,0,0,49,3.94Z"/><path class="cls-1" d="M69.07,22.23a10.88,10.88,0,0,1-5-5.73,11.22,11.22,0,0,1-.51-7.71,7.65,7.65,0,0,1,4.31-5.2A7.28,7.28,0,0,1,74.44,4a10.85,10.85,0,0,1,5,5.72A11.34,11.34,0,0,1,80,17.43a7.68,7.68,0,0,1-4.32,5.18A7.33,7.33,0,0,1,69.07,22.23ZM71.52,15a1.33,1.33,0,0,0,1.28-.65,2.27,2.27,0,0,0,.28-1.74,3.61,3.61,0,0,0-.9-1.81,2.35,2.35,0,0,0-1.56-.84,1.33,1.33,0,0,0-1.28.63,2.41,2.41,0,0,0-.26,1.75,3.53,3.53,0,0,0,.9,1.82A2.31,2.31,0,0,0,71.52,15Z"/><path class="cls-2" d="M72.84,23.55a8.41,8.41,0,0,1-3.92-1h0a11.28,11.28,0,0,1-5.2-5.89,11.64,11.64,0,0,1-.52-7.94A8,8,0,0,1,67.69,3.3a7.64,7.64,0,0,1,6.91.39,11.23,11.23,0,0,1,5.19,5.89,11.65,11.65,0,0,1,.54,7.94,8,8,0,0,1-4.5,5.39A7.38,7.38,0,0,1,72.84,23.55ZM69.22,22a7.09,7.09,0,0,0,6.35.36,7.4,7.4,0,0,0,4.14-5,11,11,0,0,0-.52-7.5,10.53,10.53,0,0,0-4.9-5.56A7,7,0,0,0,68,3.89a7.41,7.41,0,0,0-4.13,5,11,11,0,0,0,.5,7.5A10.7,10.7,0,0,0,69.22,22Zm2.42-6.66H71.5a2.65,2.65,0,0,1-1.77-.94,3.93,3.93,0,0,1-1-2,2.77,2.77,0,0,1,.3-2,1.7,1.7,0,0,1,1.58-.79,2.66,2.66,0,0,1,1.77.95,3.85,3.85,0,0,1,1,2,2.6,2.6,0,0,1-.33,2A1.64,1.64,0,0,1,71.64,15.29Zm-1.13-5a1,1,0,0,0-.9.49,2.1,2.1,0,0,0-.21,1.52,3.25,3.25,0,0,0,.81,1.65,2,2,0,0,0,1.33.73h0a1,1,0,0,0,1-.5,1.9,1.9,0,0,0,.24-1.5A3.19,3.19,0,0,0,71.94,11a2,2,0,0,0-1.34-.74Z"/><path class="cls-1" d="M94.42.4a47.18,47.18,0,0,1,.28,5.67q-8.65,3-6.25,3.78,9.1,1.29,9.11,4.34c0,2-1.25,3.93-3.77,5.7a59.56,59.56,0,0,1-10,5.42q-.9-3.87-2-7.71,10-1.62,5.69-2.39-5.9-.12-6.34-5.87T94.42.4Z"/><path class="cls-2" d="M83.62,25.77l-.09-.38c-.6-2.56-1.27-5.15-2-7.7l-.1-.35.36-.06c4.9-.79,6.23-1.29,6.59-1.51a4.41,4.41,0,0,0-.91-.24c-4.06-.08-6.3-2.15-6.6-6.17S85,2.27,94.34.08L94.7,0l0,.37A45.54,45.54,0,0,1,95,6.08V6.3l-.21.08c-6.07,2.1-6.53,2.88-6.56,3a.78.78,0,0,0,.3.13c6.26.88,9.34,2.4,9.34,4.65s-1.32,4.14-3.91,6a61.31,61.31,0,0,1-10,5.45Zm-1.36-7.91c.65,2.32,1.26,4.67,1.81,7a59.81,59.81,0,0,0,9.54-5.22c2.41-1.7,3.63-3.53,3.63-5.44s-3.06-3.2-8.84-4c-.55-.17-.8-.42-.8-.76,0-.62.82-1.49,6.78-3.57a44,44,0,0,0-.25-5C85.48,2.87,81.24,5.73,81.51,9.31s2.25,5.5,6,5.58c1,.17,1.6.38,1.59.86S89.13,16.73,82.26,17.86Z"/></g></g></svg>