<svg xmlns="http://www.w3.org/2000/svg" viewBox="0 0 171.93 54.97"><defs><style>.cls-1{fill:#fff;}</style></defs><title>Postres y_1</title><g id="Capa_2" data-name="Capa 2"><g id="Capa_3" data-name="Capa 3"><path class="cls-1" d="M29.51,1.08C32.42,2,33.9,3.72,34,6.31a6.12,6.12,0,0,1-3.19,5.82,16.36,16.36,0,0,1-5.67,2.25A63.8,63.8,0,0,0,26.52,22a57.19,57.19,0,0,0-6.84,2.36q-.9-6.85-.51-22.26Q25.16-.26,29.51,1.08ZM24.19,5.62l.29,4.14c2.93-.56,4.31-1.54,4.13-3S27,5,24.19,5.62Z"/><path d="M19.42,24.83l-.06-.41c-.61-4.57-.78-12.08-.51-22.32V1.88l.2-.08c4-1.59,7.59-1.94,10.55-1h0c3,.93,4.62,2.79,4.69,5.53a6.43,6.43,0,0,1-3.35,6.11,17.52,17.52,0,0,1-5.48,2.24,66,66,0,0,0,1.38,7.28l.07.31-.3.08a59,59,0,0,0-6.8,2.35Zm.07-22.5c-.25,9.79-.09,17,.46,21.58a58.06,58.06,0,0,1,6.18-2.13,61.4,61.4,0,0,1-1.34-7.37l0-.31.31,0a16,16,0,0,0,5.55-2.22,5.75,5.75,0,0,0,3-5.52c-.06-2.46-1.44-4.08-4.23-4.93h0C26.64.54,23.3.86,19.49,2.33Zm4.69,7.82-.34-4.79.27-.06c2-.44,3.29-.39,4.07.15a1.78,1.78,0,0,1,.75,1.31c.21,1.61-1.27,2.73-4.39,3.32Zm.35-4.27.25,3.49c2.47-.52,3.65-1.37,3.51-2.53A1.17,1.17,0,0,0,27.81,6C27.23,5.58,26.12,5.54,24.53,5.88Z"/><path class="cls-1" d="M40.14,22.24a10.84,10.84,0,0,1-4.8-5.73,11.85,11.85,0,0,1-.48-7.72A7.56,7.56,0,0,1,39,3.6a6.66,6.66,0,0,1,6.3.38A10.71,10.71,0,0,1,50,9.71a11.86,11.86,0,0,1,.5,7.72,7.63,7.63,0,0,1-4.1,5.19A6.69,6.69,0,0,1,40.14,22.24ZM42.47,15a1.22,1.22,0,0,0,1.21-.65A2.33,2.33,0,0,0,44,12.58a3.63,3.63,0,0,0-.86-1.82,2.21,2.21,0,0,0-1.47-.84,1.26,1.26,0,0,0-1.22.64,2.46,2.46,0,0,0-.25,1.75A3.58,3.58,0,0,0,41,14.12,2.13,2.13,0,0,0,42.47,15Z"/><path d="M43.72,23.56a7.72,7.72,0,0,1-3.73-1h0A11.15,11.15,0,0,1,35,16.63a12.28,12.28,0,0,1-.5-7.93,8,8,0,0,1,4.28-5.4,6.94,6.94,0,0,1,6.58.4,11,11,0,0,1,4.94,5.89,12.29,12.29,0,0,1,.52,7.93,8,8,0,0,1-4.29,5.39A6.73,6.73,0,0,1,43.72,23.56ZM40.3,22a6.29,6.29,0,0,0,6,.37,7.3,7.3,0,0,0,3.93-5,11.62,11.62,0,0,0-.49-7.51,10.41,10.41,0,0,0-4.65-5.56,6.26,6.26,0,0,0-6-.38,7.3,7.3,0,0,0-3.92,5,11.48,11.48,0,0,0,.48,7.51A10.45,10.45,0,0,0,40.3,22Zm2.28-6.66h-.13a2.5,2.5,0,0,1-1.69-.95,3.87,3.87,0,0,1-.93-2,2.86,2.86,0,0,1,.29-2,1.57,1.57,0,0,1,1.52-.79,2.46,2.46,0,0,1,1.69,1,3.86,3.86,0,0,1,.94,2,2.67,2.67,0,0,1-.32,2A1.54,1.54,0,0,1,42.58,15.29Zm-1.08-5a.93.93,0,0,0-.83.48,2.27,2.27,0,0,0-.2,1.52,3.2,3.2,0,0,0,.78,1.66,1.8,1.8,0,0,0,1.24.73.93.93,0,0,0,.91-.49,2,2,0,0,0,.23-1.52A3.29,3.29,0,0,0,42.85,11a1.88,1.88,0,0,0-1.26-.73Z"/><path class="cls-1" d="M64.21.41a44.87,44.87,0,0,1,.27,5.67q-8.22,3-5.93,3.78,8.65,1.28,8.65,4.33T63.62,19.9a56.4,56.4,0,0,1-9.45,5.42q-.86-3.88-1.9-7.71,9.46-1.62,5.4-2.39-5.6-.12-6-5.88T64.21.41Z"/><path d="M53.94,25.79l-.09-.4c-.57-2.57-1.2-5.16-1.89-7.7l-.09-.34.35-.06c4.68-.81,5.93-1.3,6.26-1.51a3.42,3.42,0,0,0-.87-.24c-3.86-.08-6-2.16-6.28-6.17s4-7.12,12.81-9.28L64.5,0l0,.37a49.71,49.71,0,0,1,.27,5.71v.23l-.21.07c-5.83,2.13-6.2,2.89-6.22,3h0a.92.92,0,0,0,.28.14c6,.88,8.88,2.4,8.88,4.64s-1.25,4.14-3.71,6a57.55,57.55,0,0,1-9.51,5.45Zm-1.26-7.92c.62,2.3,1.2,4.65,1.72,7a55.79,55.79,0,0,0,9-5.21c2.29-1.7,3.45-3.53,3.45-5.45s-2.82-3.19-8.38-4c-.53-.18-.77-.43-.78-.76,0-.63.78-1.49,6.44-3.57a48.94,48.94,0,0,0-.23-5C55.74,2.88,51.72,5.74,52,9.32s2.13,5.5,5.7,5.57c.83.15,1.54.36,1.53.87S58.7,16.82,52.68,17.87Z"/><path class="cls-1" d="M80.13,1.66A69.79,69.79,0,0,1,80.76,11a36.89,36.89,0,0,1-4.85-.18q.51,7.13.43,13.09a42.38,42.38,0,0,0-5.53-1.25,77.74,77.74,0,0,0,0-11.76l-3.71-.1-1.2-7A138.82,138.82,0,0,1,80.13,1.66Z"/><path d="M76.65,24.32l-.41-.12A41.64,41.64,0,0,0,70.76,23l-.3,0,0-.3a78.89,78.89,0,0,0,0-11.42l-3.68-.11-1.31-7.6.31-.07A137.83,137.83,0,0,1,80.1,1.34l.32,0,0,.31A70.43,70.43,0,0,1,81.08,11v.31h-.31a41.21,41.21,0,0,1-4.51-.13c.32,4.59.46,8.87.4,12.72Zm-5.5-1.95A40.34,40.34,0,0,1,76,23.46c0-3.84-.1-8.08-.43-12.63l0-.4.39.05a37,37,0,0,0,4.49.18A73,73,0,0,0,79.85,2c-5.24.53-9.82,1.2-13.62,2l1.11,6.46,3.73.11,0,.28A78.42,78.42,0,0,1,71.15,22.37Z"/><path class="cls-1" d="M87.35,14.62A66,66,0,0,0,88.72,22a57.66,57.66,0,0,0-6.83,2.36Q81,17.52,81.38,2.11q6-2.37,10.51-1.19T96.53,6c.06,2.6-1.46,4.74-4.56,6.45A49.81,49.81,0,0,0,97.61,18a43.49,43.49,0,0,0-3.59,5A65,65,0,0,1,87.35,14.62Zm-1-9,.3,4.14c2.93-.56,4.3-1.54,4.13-3S89.16,5,86.39,5.62Z"/><path d="M81.62,24.83l-.05-.41c-.61-4.57-.78-12.08-.52-22.32V1.88l.2-.08c4-1.59,7.63-2,10.71-1.2S96.79,3.23,96.85,6s-1.41,4.82-4.39,6.55a54.67,54.67,0,0,0,5.37,5.25l.23.21-.2.24a45,45,0,0,0-3.56,5l-.23.37-.29-.32A69.15,69.15,0,0,1,87.85,16c.24,1.63.64,3.64,1.19,6l.07.31-.3.08A59,59,0,0,0,82,24.67Zm.08-22.5c-.25,9.79-.1,17,.46,21.58a57.3,57.3,0,0,1,6.18-2.13A62.05,62.05,0,0,1,87,14.66l-.14-1.35.73,1.14A65.19,65.19,0,0,0,94,22.53a46.52,46.52,0,0,1,3.19-4.47,48.87,48.87,0,0,1-5.45-5.42l-.23-.31.33-.18c3-1.65,4.46-3.67,4.39-6.15s-1.49-4-4.39-4.77S85.51.85,81.7,2.33Zm4.69,7.82-.34-4.79.27-.06c2-.44,3.28-.39,4.07.15a1.82,1.82,0,0,1,.75,1.31c.2,1.61-1.28,2.73-4.39,3.32Zm.34-4.27L87,9.37c2.48-.52,3.66-1.37,3.51-2.53A1.13,1.13,0,0,0,90,6C89.43,5.58,88.33,5.54,86.73,5.88Z"/><path class="cls-1" d="M98.19,23.06A131.14,131.14,0,0,0,97.74,4a39.7,39.7,0,0,0,12.43-.37q-.28,2.73-.45,5.88a24.55,24.55,0,0,1-6.69.82l0,.94A17.38,17.38,0,0,0,109.5,11c.12,1.86.18,3.65.18,5.36a18.67,18.67,0,0,1-6.65.3L103,18a15.7,15.7,0,0,0,6.67-.23c.17,2.3.4,4.47.69,6.49A18.26,18.26,0,0,1,98.19,23.06Z"/><path d="M105.89,25.08a18.89,18.89,0,0,1-7.83-1.72l-.21-.09,0-.22A133.43,133.43,0,0,0,97.42,4l0-.42.41.06a39.58,39.58,0,0,0,12.32-.36l.43-.07-.05.43c-.18,1.81-.33,3.78-.44,5.85l0,.25-.23,0a26.35,26.35,0,0,1-6.44.85V11a18.31,18.31,0,0,0,6.08-.27l.35-.06,0,.36c.12,1.86.18,3.67.18,5.38v.27l-.27.05a20.4,20.4,0,0,1-6.41.36l0,.64a16,16,0,0,0,6.26-.29l.37-.07,0,.36c.17,2.29.4,4.47.69,6.48l0,.29-.28.07A19.35,19.35,0,0,1,105.89,25.08Zm-7.36-2.22A18.05,18.05,0,0,0,110,24c-.26-1.83-.47-3.8-.63-5.85a15.43,15.43,0,0,1-6.45.15l-.26-.06.11-1.93.37.08a18,18,0,0,0,6.27-.25c0-1.51-.06-3.09-.16-4.71a17,17,0,0,1-6.23.15l-.24-.06,0-1.55.35,0a23.65,23.65,0,0,0,6.37-.75c.1-1.84.23-3.6.39-5.23a40,40,0,0,1-11.7.35A133.34,133.34,0,0,1,98.53,22.86Z"/><path class="cls-1" d="M123.66.41a44.87,44.87,0,0,1,.27,5.67q-8.22,3-5.94,3.78,8.66,1.28,8.66,4.33t-3.58,5.71a56.4,56.4,0,0,1-9.45,5.42c-.57-2.59-1.21-5.16-1.9-7.71q9.45-1.62,5.4-2.39c-3.74-.08-5.74-2-6-5.88S115,2.53,123.66.41Z"/><path d="M113.39,25.79l-.09-.4c-.57-2.57-1.21-5.16-1.89-7.7l-.1-.34.36-.06c4.68-.81,5.93-1.3,6.26-1.51a3.72,3.72,0,0,0-.87-.24c-3.86-.08-6-2.16-6.28-6.17s4-7.12,12.8-9.28L124,0l0,.37a49.71,49.71,0,0,1,.27,5.71v.23l-.21.07c-5.83,2.13-6.2,2.89-6.22,3h0a.77.77,0,0,0,.28.14c6,.88,8.88,2.4,8.88,4.64s-1.25,4.14-3.71,6a57.55,57.55,0,0,1-9.51,5.45Zm-1.26-7.92c.62,2.3,1.2,4.65,1.72,7a55.79,55.79,0,0,0,9-5.21c2.29-1.7,3.45-3.53,3.45-5.45s-2.82-3.19-8.38-4c-.53-.18-.77-.43-.78-.76,0-.63.78-1.49,6.44-3.57a48.94,48.94,0,0,0-.23-5c-8.19,2.07-12.22,4.93-12,8.51s2.14,5.5,5.71,5.57c.82.15,1.54.36,1.53.87S118.15,16.82,112.13,17.87Z"/><path class="cls-1" d="M152.73,4.83a44,44,0,0,1-5.51,12.78,43.5,43.5,0,0,1,.43,6.88,43.1,43.1,0,0,0-6.94-.9,62.9,62.9,0,0,0,.45-7.56l-5.39-9.14a18.65,18.65,0,0,1,5.17-5.51,43.32,43.32,0,0,1,3.24,8.81c1.06-1.89,1.95-4.93,2.7-9.14A13.13,13.13,0,0,1,152.73,4.83Z"/><path d="M148,24.9l-.39-.09a42.35,42.35,0,0,0-6.89-.9h-.35l0-.35a60.63,60.63,0,0,0,.45-7.43l-5.44-9.24.11-.17a19.06,19.06,0,0,1,5.26-5.61l.31-.19.16.32a42.75,42.75,0,0,1,3.05,8.06A35.84,35.84,0,0,0,146.56,1l.06-.35.34.09a13.41,13.41,0,0,1,6,3.87l.13.13-.05.18a44.67,44.67,0,0,1-5.48,12.76A43.2,43.2,0,0,1,148,24.5Zm-6.9-1.62a44,44,0,0,1,6.25.81,41.83,41.83,0,0,0-.42-6.43l0-.13.07-.11a43.43,43.43,0,0,0,5.41-12.49,12.88,12.88,0,0,0-5.23-3.46,30.73,30.73,0,0,1-2.66,8.88l-.4.71-.2-.78a43.53,43.53,0,0,0-3.06-8.43,19,19,0,0,0-4.66,5.05l5.33,9V16A64.31,64.31,0,0,1,141.07,23.28Z"/><path class="cls-1" d="M15,52.87V53c-5.37.85-9.06.65-11.09-.57s-3.2-4-3.53-8.21.82-7.71,3.46-10.37,6-3.21,10-1.6q-.42,3.12-1,6A5.7,5.7,0,0,0,9.1,38a3.38,3.38,0,0,0-2.2,2.62,4.1,4.1,0,0,0,.78,3.86,2.69,2.69,0,0,0,1.23.86l-.37-4.63L14.32,40,15,52.88Z"/><path d="M9.25,53.88a10.65,10.65,0,0,1-5.51-1.15C1.64,51.45.4,48.61.06,44.27A13,13,0,0,1,3.61,33.65C6.33,30.89,9.81,30.33,14,32l.24.1,0,.25c-.29,2.09-.61,4.11-1,6l-.07.38-.36-.14a5.49,5.49,0,0,0-3.57-.31,3.07,3.07,0,0,0-2,2.39,3.81,3.81,0,0,0,.72,3.58,2.24,2.24,0,0,0,.61.52l-.35-4.38,6.44-.7.74,14.09-.37-.4A38.39,38.39,0,0,1,9.25,53.88Zm.33-22.19A7.49,7.49,0,0,0,4.07,34.1,12.37,12.37,0,0,0,.7,44.22c.33,4.11,1.46,6.79,3.38,8s5.47,1.35,10.57.57L14.59,52l0,0L14,40.39,8.89,41l.39,4.84-.49-.2a3,3,0,0,1-1.37-1,4.43,4.43,0,0,1-.84-4.14A3.74,3.74,0,0,1,9,37.64a5.8,5.8,0,0,1,3.62.2c.32-1.71.6-3.5.86-5.35A11,11,0,0,0,9.58,31.69Z"/><path class="cls-1" d="M22.08,35.19a19.12,19.12,0,0,0-1.24,5.35c-.16,1.85.5,2.77,2,2.74s2.24-1,2.28-2.94a25.42,25.42,0,0,0-.49-5.53A12.66,12.66,0,0,1,30,34.49,64.51,64.51,0,0,1,30.49,42a14.93,14.93,0,0,1-1.37,7,6.43,6.43,0,0,1-4.52,3.46q-3.11.69-6.29-2.41t-2.57-9.42q.61-6.33,2.35-8.33A25.07,25.07,0,0,1,22.08,35.19Z"/><path d="M23.47,52.9a7.9,7.9,0,0,1-5.39-2.62c-2.18-2.13-3.08-5.39-2.66-9.69s1.21-7.12,2.43-8.51l.17-.2.23.12a25.5,25.5,0,0,1,4,3l.18.14-.09.22a19.11,19.11,0,0,0-1.22,5.26,2.57,2.57,0,0,0,.41,2,1.52,1.52,0,0,0,1.24.42c.82,0,1.92-.31,2-2.63a25.31,25.31,0,0,0-.48-5.45l-.06-.3.3-.08a13,13,0,0,1,5.52-.33l.24,0,0,.24A63,63,0,0,1,30.81,42a15.3,15.3,0,0,1-1.4,7.1,6.76,6.76,0,0,1-4.74,3.64A6.12,6.12,0,0,1,23.47,52.9Zm-5.3-20.19c-1,1.35-1.73,4-2.11,7.94-.39,4.1.44,7.18,2.48,9.16s4,2.76,6,2.32a6,6,0,0,0,4.3-3.29A14.71,14.71,0,0,0,30.16,42a60.54,60.54,0,0,0-.46-7.27,12.5,12.5,0,0,0-4.71.28,26,26,0,0,1,.43,5.29C25.37,43,24,43.58,22.83,43.61A2.31,2.31,0,0,1,21.09,43a3.17,3.17,0,0,1-.58-2.47,19.71,19.71,0,0,1,1.19-5.22A25.24,25.24,0,0,0,18.17,32.71Z"/><path class="cls-1" d="M41.45,33.75a172.66,172.66,0,0,0,5.6,16.82l-5.61,3L40.2,49l-3.59-.46c-.23,2.29-.42,3.82-.56,4.56l-2.62-1.6-2.77-1.23q2.56-9.69,4.23-17.43ZM37,43.2l2.11.28-1.42-5.3Z"/><path d="M41.23,54,40,49.27l-3.05-.39c-.21,2.11-.39,3.54-.53,4.26l-.09.47-3-1.86-3-1.32.07-.26c1.7-6.42,3.12-12.28,4.23-17.42l.06-.3,7.06,1,.06.2a168.58,168.58,0,0,0,5.6,16.79l.1.27Zm-4.91-5.87,4.14.52,1.18,4.4,5-2.66A170.89,170.89,0,0,1,41.19,34l-6-.86c-1.08,5-2.46,10.68-4.1,16.88l2.51,1.12,2.25,1.38c.13-.84.29-2.2.48-4.07Zm3.2-4.29-2.91-.39,1-6.95Zm-2.18-.95,1.3.18-.87-3.28Z"/><path class="cls-1" d="M53.56,43.81a61.93,61.93,0,0,0,1.37,7.38,55.55,55.55,0,0,0-6.84,2.37q-.9-6.87-.51-22.27,6-2.37,10.52-1.19c3,.78,4.57,2.48,4.63,5.07s-1.45,4.75-4.56,6.45a50.13,50.13,0,0,0,5.65,5.59,44.47,44.47,0,0,0-3.59,5A64.84,64.84,0,0,1,53.56,43.81Zm-1-9,.3,4.15q4.39-.84,4.13-3T52.59,34.8Z"/><path d="M47.83,54l-.06-.42C47.16,49,47,41.52,47.26,31.28v-.21l.2-.08c4-1.6,7.64-2,10.72-1.2s4.81,2.63,4.88,5.37S61.65,40,58.67,41.71A53.06,53.06,0,0,0,64,47l.24.2-.2.25a43.34,43.34,0,0,0-3.57,5l-.22.36L60,52.47a69.12,69.12,0,0,1-5.94-7.34q.38,2.46,1.2,6l.07.3-.31.09a55.29,55.29,0,0,0-6.79,2.35Zm.07-22.51c-.25,9.79-.09,17.05.46,21.58A60.38,60.38,0,0,1,54.54,51a62.05,62.05,0,0,1-1.31-7.12l-.14-1.34.74,1.13a63.54,63.54,0,0,0,6.35,8.08,43.59,43.59,0,0,1,3.19-4.46,48.76,48.76,0,0,1-5.45-5.43l-.24-.3.34-.19c3-1.65,4.45-3.66,4.39-6.15s-1.5-4-4.39-4.76S51.72,30,47.9,31.51Zm4.69,7.82-.34-4.78.27-.07c2-.44,3.29-.39,4.07.16a1.78,1.78,0,0,1,.75,1.3c.21,1.61-1.27,2.73-4.39,3.33Zm.35-4.27.25,3.49C55.66,38,56.84,37.18,56.7,36a1.17,1.17,0,0,0-.48-.85C55.64,34.76,54.53,34.72,52.94,35.06Z"/><path class="cls-1" d="M69.33,30.56a57,57,0,0,0,3.82,11,71.77,71.77,0,0,1,1-10.25q4.58.8,5.5,1.11a143.51,143.51,0,0,0-.91,19.22L73,53.41a63.87,63.87,0,0,1-3.93-8.31q-.36,4-.44,8.46A11.42,11.42,0,0,1,64,51.35a148.66,148.66,0,0,1,1.51-19.53A9.64,9.64,0,0,1,69.33,30.56Z"/><path d="M69,54l-.38-.09a11.81,11.81,0,0,1-4.86-2.26l-.12-.1v-.16a149.4,149.4,0,0,1,1.52-19.58l0-.17.15-.07a9.86,9.86,0,0,1,4-1.29h.26l.06.25a56.63,56.63,0,0,0,3.25,9.75,65.19,65.19,0,0,1,.95-9l.06-.31.31.05a52.69,52.69,0,0,1,5.56,1.12l.25.09,0,.26a146.22,146.22,0,0,0-.91,19.17v.25L72.88,53.8l-.13-.24c-1.53-2.85-2.68-5.2-3.43-7-.18,2.21-.29,4.57-.33,7ZM64.27,51.2a11.25,11.25,0,0,0,4.08,1.95c.06-2.85.2-5.56.44-8.08l.14-1.48L69.42,45a61.87,61.87,0,0,0,3.78,8l5.23-1.6a146.31,146.31,0,0,1,.88-18.74c-.74-.21-2.38-.53-4.89-1a77.29,77.29,0,0,0-.94,9.89l-.06,1.31-.56-1.19A56.85,56.85,0,0,1,69.08,30.9,10.06,10.06,0,0,0,65.76,32,150.57,150.57,0,0,0,64.27,51.2Z"/><path class="cls-1" d="M86.76,37.73a82.49,82.49,0,0,0,.34,14.52,26,26,0,0,0-6.29.52,54.47,54.47,0,0,1,.12-15.3A21.8,21.8,0,0,1,86.76,37.73Zm-1.21-8.42A2.2,2.2,0,0,1,86.94,31a3.34,3.34,0,0,1-.49,2.46,4.34,4.34,0,0,1-2.06,1.82,3.08,3.08,0,0,1-2.44.12,2.23,2.23,0,0,1-1.4-1.66A3.41,3.41,0,0,1,81,31.25a4.31,4.31,0,0,1,2.07-1.82A3.08,3.08,0,0,1,85.55,29.31Z"/><path d="M80.54,53.16l-.05-.34a54.35,54.35,0,0,1,.12-15.39l0-.25.26,0a22.47,22.47,0,0,1,5.92.26l.29.05,0,.29a80.86,80.86,0,0,0,.33,14.46l0,.38-.38,0a26.37,26.37,0,0,0-6.2.52Zm.67-15.38a54.15,54.15,0,0,0-.12,14.61,26.43,26.43,0,0,1,5.64-.48A82.47,82.47,0,0,1,86.42,38,21.42,21.42,0,0,0,81.21,37.78ZM83,35.9a3.07,3.07,0,0,1-1.16-.22,2.52,2.52,0,0,1-1.58-1.89,3.73,3.73,0,0,1,.52-2.71A4.68,4.68,0,0,1,83,29.13,3.43,3.43,0,0,1,85.67,29h0a2.51,2.51,0,0,1,1.59,1.9,3.64,3.64,0,0,1-.53,2.69,4.67,4.67,0,0,1-2.21,2A3.87,3.87,0,0,1,83,35.9Zm1.53-6.46a3.1,3.1,0,0,0-1.27.29,3.94,3.94,0,0,0-1.92,1.69,3,3,0,0,0-.45,2.23,1.87,1.87,0,0,0,1.2,1.42A2.72,2.72,0,0,0,84.26,35a4,4,0,0,0,1.91-1.69,3,3,0,0,0,.45-2.22,1.87,1.87,0,0,0-1.19-1.44h0A2.42,2.42,0,0,0,84.51,29.44Z"/><path class="cls-1" d="M91.36,52.46q-3-1.85-3.53-8.21a12.6,12.6,0,0,1,3.45-10.37q4-4,10-1.6-.42,3.12-1,6A5.73,5.73,0,0,0,96.54,38a3.42,3.42,0,0,0-2.2,2.62,4.15,4.15,0,0,0,.78,3.86q1.36,1.74,5.26,1.39l.55,7.3C96.57,53.91,93.38,53.68,91.36,52.46Z"/><path d="M96.4,53.9a10,10,0,0,1-5.21-1.17h0c-2.11-1.28-3.35-4.12-3.69-8.46a13,13,0,0,1,3.55-10.62c2.73-2.76,6.21-3.32,10.35-1.68l.24.1,0,.25c-.28,2.09-.6,4.11-1,6l-.07.38-.37-.14a5.46,5.46,0,0,0-3.56-.31,3.07,3.07,0,0,0-2,2.39,3.81,3.81,0,0,0,.71,3.58c.84,1.06,2.51,1.49,5,1.27l.33,0,.6,7.93-.29,0A25.79,25.79,0,0,1,96.4,53.9Zm-4.87-1.72c1.9,1.15,5,1.38,9.06.67l-.51-6.68c-2.52.18-4.28-.34-5.22-1.54A4.48,4.48,0,0,1,94,40.48a3.7,3.7,0,0,1,2.42-2.84,5.8,5.8,0,0,1,3.62.2c.31-1.71.6-3.5.85-5.35C97.1,31,94,31.57,91.51,34.1a12.4,12.4,0,0,0-3.36,10.12c.32,4.11,1.46,6.79,3.38,8Z"/><path class="cls-1" d="M108.37,37.73a82.49,82.49,0,0,0,.34,14.52,26,26,0,0,0-6.29.52,54.47,54.47,0,0,1,.12-15.3A21.78,21.78,0,0,1,108.37,37.73Zm-1.21-8.42A2.2,2.2,0,0,1,108.55,31a3.38,3.38,0,0,1-.48,2.46A4.41,4.41,0,0,1,106,35.26a3.08,3.08,0,0,1-2.44.12,2.22,2.22,0,0,1-1.39-1.66,3.35,3.35,0,0,1,.48-2.47,4.31,4.31,0,0,1,2.07-1.82A3.08,3.08,0,0,1,107.16,29.31Z"/><path d="M102.15,53.16l-.05-.34a54.73,54.73,0,0,1,.12-15.39l0-.25.26,0a22.47,22.47,0,0,1,5.92.26l.29.05,0,.29A81.8,81.8,0,0,0,109,52.21l0,.38-.38,0a26.37,26.37,0,0,0-6.2.52Zm.67-15.38a54.15,54.15,0,0,0-.12,14.61,26.43,26.43,0,0,1,5.64-.48A83.53,83.53,0,0,1,108,38,21.42,21.42,0,0,0,102.82,37.78Zm1.77-1.88a3,3,0,0,1-1.15-.22,2.53,2.53,0,0,1-1.59-1.89,3.73,3.73,0,0,1,.52-2.71,4.68,4.68,0,0,1,2.22-1.95,3.43,3.43,0,0,1,2.69-.12h0a2.51,2.51,0,0,1,1.59,1.9,3.68,3.68,0,0,1-.52,2.69,4.7,4.7,0,0,1-2.22,2A3.87,3.87,0,0,1,104.59,35.9Zm1.54-6.46a3.11,3.11,0,0,0-1.28.29,3.94,3.94,0,0,0-1.92,1.69,3.07,3.07,0,0,0-.45,2.23,1.87,1.87,0,0,0,1.2,1.42,2.72,2.72,0,0,0,2.19-.11,4.09,4.09,0,0,0,1.92-1.69,3.06,3.06,0,0,0,.45-2.22,1.9,1.9,0,0,0-1.2-1.44h0A2.37,2.37,0,0,0,106.13,29.44Z"/><path class="cls-1" d="M115.29,51.42a10.72,10.72,0,0,1-4.8-5.73A11.85,11.85,0,0,1,110,38a7.57,7.57,0,0,1,4.1-5.19,6.62,6.62,0,0,1,6.29.39,10.74,10.74,0,0,1,4.8,5.72,12,12,0,0,1,.5,7.73,7.59,7.59,0,0,1-4.11,5.18A6.64,6.64,0,0,1,115.29,51.42Zm2.32-7.28a1.24,1.24,0,0,0,1.22-.64,2.36,2.36,0,0,0,.27-1.74,3.6,3.6,0,0,0-.86-1.81,2.15,2.15,0,0,0-1.48-.84,1.25,1.25,0,0,0-1.22.63,2.57,2.57,0,0,0-.25,1.75,3.63,3.63,0,0,0,.86,1.82A2.12,2.12,0,0,0,117.61,44.14Z"/><path d="M118.87,52.74a7.74,7.74,0,0,1-3.74-1h0a11.17,11.17,0,0,1-4.94-5.9,12.13,12.13,0,0,1-.5-7.92,7.9,7.9,0,0,1,4.27-5.4,7,7,0,0,1,6.59.39,11.07,11.07,0,0,1,4.94,5.89A12.22,12.22,0,0,1,126,46.7a7.94,7.94,0,0,1-4.28,5.4A6.75,6.75,0,0,1,118.87,52.74Zm-3.43-1.6a6.36,6.36,0,0,0,6,.37,7.32,7.32,0,0,0,3.93-5,11.71,11.71,0,0,0-.49-7.52,10.53,10.53,0,0,0-4.65-5.56,6.26,6.26,0,0,0-6-.37,7.28,7.28,0,0,0-3.92,5,11.54,11.54,0,0,0,.47,7.51A10.55,10.55,0,0,0,115.44,51.14Zm2.28-6.67h-.13a2.46,2.46,0,0,1-1.69-.95,4,4,0,0,1-.93-2,2.82,2.82,0,0,1,.29-2,1.59,1.59,0,0,1,1.52-.8,2.54,2.54,0,0,1,1.7.95,4,4,0,0,1,.94,2,2.69,2.69,0,0,1-.32,2A1.53,1.53,0,0,1,117.72,44.47Zm-1.07-5a.93.93,0,0,0-.83.49,2.2,2.2,0,0,0-.21,1.52,3.37,3.37,0,0,0,.78,1.65,1.84,1.84,0,0,0,1.25.73.94.94,0,0,0,.91-.49,2.06,2.06,0,0,0,.23-1.51,3.34,3.34,0,0,0-.79-1.66,1.84,1.84,0,0,0-1.25-.73Z"/><path class="cls-1" d="M132.24,30.56a57,57,0,0,0,3.82,11,71.77,71.77,0,0,1,1-10.25q4.57.8,5.5,1.11a143.51,143.51,0,0,0-.91,19.22L136,53.41A63.87,63.87,0,0,1,132,45.1q-.36,4-.44,8.46a11.42,11.42,0,0,1-4.72-2.21,148.66,148.66,0,0,1,1.51-19.53A9.68,9.68,0,0,1,132.24,30.56Z"/><path d="M131.89,54l-.38-.09a11.71,11.71,0,0,1-4.85-2.26l-.13-.1v-.16a149.4,149.4,0,0,1,1.52-19.58l0-.17.15-.07a9.86,9.86,0,0,1,4-1.29h.26l.06.25a56.63,56.63,0,0,0,3.25,9.75,65.19,65.19,0,0,1,.95-9l.06-.31.31.05a52.69,52.69,0,0,1,5.56,1.12l.25.09,0,.26A146.22,146.22,0,0,0,142,51.66v.25l-6.21,1.89-.13-.24c-1.53-2.85-2.68-5.2-3.43-7-.18,2.21-.29,4.57-.33,7Zm-4.71-2.76a11.25,11.25,0,0,0,4.08,1.95c.06-2.85.2-5.56.44-8.08l.14-1.48.49,1.41a61.87,61.87,0,0,0,3.78,8l5.23-1.6a146.31,146.31,0,0,1,.88-18.74c-.74-.21-2.38-.53-4.89-1a77.29,77.29,0,0,0-.94,9.89l-.06,1.31-.56-1.19A56.85,56.85,0,0,1,132,30.9,10.06,10.06,0,0,0,128.67,32,150.57,150.57,0,0,0,127.18,51.2Z"/><path class="cls-1" d="M143.14,52.25a132.69,132.69,0,0,0-.44-19.11,39.92,39.92,0,0,0,12.42-.36q-.27,2.72-.44,5.87a24.19,24.19,0,0,1-6.7.82l0,1a17.43,17.43,0,0,0,6.45-.22c.12,1.87.18,3.65.18,5.36a18.72,18.72,0,0,1-6.66.3l-.08,1.28a15.53,15.53,0,0,0,6.67-.23c.17,2.31.4,4.47.69,6.5A18.33,18.33,0,0,1,143.14,52.25Z"/><path d="M150.84,54.27A19,19,0,0,1,143,52.54l-.2-.09v-.22a133.46,133.46,0,0,0-.45-19.06l0-.41.41.06a40,40,0,0,0,12.33-.36l.42-.08,0,.43c-.19,1.81-.34,3.78-.45,5.86v.24l-.24.06a25.74,25.74,0,0,1-6.44.84v.35a18.65,18.65,0,0,0,6.08-.28l.36-.06,0,.36c.12,1.86.18,3.68.18,5.38v.27l-.27.05a20.46,20.46,0,0,1-6.41.37l0,.64a16.09,16.09,0,0,0,6.27-.3l.36-.07,0,.37c.17,2.28.4,4.46.69,6.47l0,.29-.29.07A18.84,18.84,0,0,1,150.84,54.27ZM143.48,52a18.05,18.05,0,0,0,11.42,1.12c-.25-1.84-.46-3.8-.62-5.86a15.68,15.68,0,0,1-6.46.16l-.26-.07.12-1.93.37.08a17.9,17.9,0,0,0,6.26-.25c0-1.5-.06-3.08-.16-4.71a16.94,16.94,0,0,1-6.22.15l-.24-.06,0-1.54.35,0a23.7,23.7,0,0,0,6.36-.76c.1-1.84.24-3.59.4-5.22a40.66,40.66,0,0,1-11.7.35A134.72,134.72,0,0,1,143.48,52Z"/><path class="cls-1" d="M168.62,29.59a49,49,0,0,1,.27,5.67q-8.22,3-5.94,3.78,8.66,1.29,8.66,4.34c0,2-1.2,3.93-3.58,5.7a56.25,56.25,0,0,1-9.46,5.42q-.85-3.87-1.89-7.71,9.45-1.62,5.4-2.39-5.61-.12-6-5.87T168.62,29.59Z"/><path d="M158.35,55l-.09-.4c-.57-2.57-1.21-5.16-1.9-7.69l-.09-.35.35-.06c4.69-.8,5.93-1.3,6.26-1.51a3.43,3.43,0,0,0-.86-.24c-3.87-.08-6-2.16-6.29-6.17s4-7.12,12.81-9.28l.36-.09,0,.38a47.54,47.54,0,0,1,.27,5.71v.22l-.21.08c-5.83,2.12-6.21,2.89-6.22,3h0a.65.65,0,0,0,.27.14c6,.88,8.88,2.4,8.88,4.65s-1.25,4.13-3.71,6a56.85,56.85,0,0,1-9.51,5.45Zm-1.27-7.92c.62,2.31,1.2,4.65,1.72,7a55.35,55.35,0,0,0,9-5.21c2.29-1.7,3.45-3.53,3.45-5.44s-2.82-3.19-8.38-4c-.53-.17-.77-.42-.77-.76,0-.62.77-1.49,6.43-3.57a43.62,43.62,0,0,0-.23-5c-8.19,2.06-12.21,4.92-12,8.5s2.13,5.5,5.7,5.58c.83.15,1.54.35,1.54.86S163.1,46,157.08,47.05Z"/></g></g></svg>