<svg xmlns="http://www.w3.org/2000/svg" viewBox="0 0 142.75 25.77"><defs><style>.cls-1{fill:#ff0;}.cls-2{fill:#1d1d1b;}</style></defs><title>REFRESCOS_1</title><g id="Capa_2" data-name="Capa 2"><g id="Capa_3" data-name="Capa 3"><path class="cls-1" d="M6.74,14.62A60.57,60.57,0,0,0,8.19,22,62.39,62.39,0,0,0,1,24.37Q0,17.5.45,2.1,6.75-.25,11.52.91T16.4,6q.11,3.9-4.8,6.45A51,51,0,0,0,17.54,18a45.35,45.35,0,0,0-3.78,5A67.06,67.06,0,0,1,6.74,14.62Zm-1-9L6,9.76q4.64-.84,4.35-3C10.2,5.38,8.65,5,5.73,5.61Z"/><path class="cls-2" d="M.73,24.82l-.06-.41C0,19.85-.15,12.34.13,2.09V1.87L.34,1.8C4.57.21,8.36-.2,11.6.6S16.66,3.23,16.73,6s-1.49,4.83-4.62,6.56a56.4,56.4,0,0,0,5.64,5.24L18,18l-.22.25a44.63,44.63,0,0,0-3.75,5l-.22.35-.29-.3a68.92,68.92,0,0,1-6.29-7.39c.26,1.64.68,3.67,1.26,6l.08.31-.31.08a62.28,62.28,0,0,0-7.16,2.35Zm0-22.49c-.26,9.8-.1,17,.49,21.58A64.73,64.73,0,0,1,7.8,21.77a58.37,58.37,0,0,1-1.38-7.11l-.14-1.3L7,14.44a65.49,65.49,0,0,0,6.7,8.1,46,46,0,0,1,3.37-4.48,51.09,51.09,0,0,1-5.73-5.42l-.25-.31.35-.19c3.14-1.63,4.69-3.7,4.63-6.15S14.5,2,11.45,1.23,4.8.85.77,2.33Zm5,7.81L5.39,5.35l.27-.06c2.09-.45,3.49-.39,4.3.18a1.76,1.76,0,0,1,.75,1.28c.22,1.62-1.34,2.74-4.61,3.33Zm.34-4.27.26,3.5C9,8.85,10.22,8,10.07,6.84A1.18,1.18,0,0,0,9.59,6C9,5.57,7.8,5.53,6.08,5.87Z"/><path class="cls-1" d="M18.15,23.06A124.69,124.69,0,0,0,17.68,4a44.24,44.24,0,0,0,13.08-.36c-.19,1.82-.35,3.77-.47,5.87a26.7,26.7,0,0,1-7,.82l0,1A19.3,19.3,0,0,0,30.06,11c.13,1.87.19,3.65.19,5.36a20.21,20.21,0,0,1-7,.3L23.16,18a17.18,17.18,0,0,0,7-.23c.18,2.31.43,4.47.73,6.5A20.23,20.23,0,0,1,18.15,23.06Z"/><path class="cls-2" d="M26.26,25.08A21,21,0,0,1,18,23.36l-.2-.09V23A126.6,126.6,0,0,0,17.36,4l0-.41.41.06a44.26,44.26,0,0,0,13-.36l.42-.07,0,.42c-.2,1.8-.36,3.77-.47,5.86l0,.24-.24.06a28,28,0,0,1-6.78.84V11A20.4,20.4,0,0,0,30,10.69l.35,0,0,.35c.12,1.86.19,3.67.19,5.38v.28l-.27,0a22.07,22.07,0,0,1-6.77.36l0,.65a18.09,18.09,0,0,0,6.62-.29l.36-.07,0,.36c.18,2.29.42,4.47.72,6.47l.05.3-.29.07A21.39,21.39,0,0,1,26.26,25.08Zm-7.77-2.23A20,20,0,0,0,30.55,24c-.27-1.83-.49-3.8-.66-5.86a17.35,17.35,0,0,1-6.8.16l-.27-.06.12-1.93.37.07a19.73,19.73,0,0,0,6.62-.25c0-1.51-.07-3.09-.17-4.71a19.14,19.14,0,0,1-6.56.16L23,11.49l0-1.55.35,0A25.88,25.88,0,0,0,30,9.2c.11-1.85.25-3.6.42-5.23A45,45,0,0,1,18,4.33,126,126,0,0,1,18.49,22.85Z"/><path class="cls-1" d="M44.35,2.45a38.17,38.17,0,0,1,0,6.05,17.47,17.47,0,0,0-7,.66l.16,1.8a23.49,23.49,0,0,1,6.79-.74,37.66,37.66,0,0,1,.18,6.17,19.72,19.72,0,0,0-6.3.62,63,63,0,0,0,1.17,6.72,20.14,20.14,0,0,1-6.54.46,81.73,81.73,0,0,1-.72-19.44A29.63,29.63,0,0,1,44.35,2.45Z"/><path class="cls-2" d="M34.68,24.61c-.62,0-1.24,0-1.84-.09l-.25,0,0-.25a81.85,81.85,0,0,1-.72-19.52l0-.2L32,4.45A29.92,29.92,0,0,1,44.36,2.13h.29l0,.29a39,39,0,0,1,0,6.11l0,.31-.32,0a17.19,17.19,0,0,0-6.6.56l.11,1.13a27.18,27.18,0,0,1,6.5-.63h.29l0,.29a37.31,37.31,0,0,1,.18,6.23l0,.31h-.32a20.2,20.2,0,0,0-5.92.54,64.15,64.15,0,0,0,1.12,6.41l.07.32-.31.07A21.79,21.79,0,0,1,34.68,24.61Zm-1.52-.72a20.33,20.33,0,0,0,5.86-.4,62.09,62.09,0,0,1-1.1-6.44l0-.27.26-.08a19.94,19.94,0,0,1,6.08-.65,37.45,37.45,0,0,0-.16-5.5,22.65,22.65,0,0,0-6.39.71l-.4.15-.22-2.47.24-.08a17.3,17.3,0,0,1,6.78-.71,39.09,39.09,0,0,0,0-5.38A29,29,0,0,0,32.46,5,80.85,80.85,0,0,0,33.16,23.89Z"/><path class="cls-1" d="M51.64,14.62A62.19,62.19,0,0,0,53.08,22a62.89,62.89,0,0,0-7.19,2.37q-1-6.87-.54-22.27Q51.64-.25,56.42.91C59.61,1.7,61.23,3.39,61.3,6s-1.53,4.75-4.8,6.45A51,51,0,0,0,62.44,18a45.35,45.35,0,0,0-3.78,5A65.38,65.38,0,0,1,51.64,14.62Zm-1-9,.31,4.15q4.62-.84,4.34-3C55.1,5.38,53.54,5,50.63,5.61Z"/><path class="cls-2" d="M45.62,24.82l0-.41c-.64-4.56-.83-12.07-.55-22.32V1.87l.2-.07c4.24-1.59,8-2,11.27-1.2s5,2.63,5.13,5.37S60.14,10.8,57,12.53a55.28,55.28,0,0,0,5.64,5.24l.25.21-.21.25a44.75,44.75,0,0,0-3.76,5l-.22.35-.28-.3a68.92,68.92,0,0,1-6.29-7.39c.25,1.64.68,3.67,1.26,6l.08.31-.31.08A61,61,0,0,0,46,24.67Zm.05-22.49c-.26,9.8-.1,17,.48,21.58a65.56,65.56,0,0,1,6.54-2.14,60,60,0,0,1-1.37-7.11l-.15-1.3.74,1.08a65.49,65.49,0,0,0,6.7,8.1A44.45,44.45,0,0,1,62,18.06a50.21,50.21,0,0,1-5.73-5.42L56,12.33l.36-.19C59.48,10.51,61,8.44,61,6S59.4,2,56.34,1.23,49.7.85,45.67,2.33Zm5,7.81-.36-4.79.28-.06c2.08-.45,3.49-.39,4.3.18a1.83,1.83,0,0,1,.75,1.28c.21,1.62-1.34,2.74-4.62,3.33ZM51,5.87l.26,3.5C53.86,8.85,55.12,8,55,6.84A1.15,1.15,0,0,0,54.48,6C53.87,5.57,52.69,5.53,51,5.87Z"/><path class="cls-1" d="M63.05,23.06A127.29,127.29,0,0,0,62.58,4a44.24,44.24,0,0,0,13.08-.36c-.2,1.82-.36,3.77-.47,5.87a26.7,26.7,0,0,1-7,.82l0,1A19.3,19.3,0,0,0,75,11c.12,1.87.19,3.65.19,5.36a20.21,20.21,0,0,1-7,.3L68.06,18a17.19,17.19,0,0,0,7-.23c.18,2.31.42,4.47.73,6.5A20.22,20.22,0,0,1,63.05,23.06Z"/><path class="cls-2" d="M71.15,25.08a21,21,0,0,1-8.23-1.72l-.21-.09V23A125.29,125.29,0,0,0,62.25,4l0-.41.41.06a44.32,44.32,0,0,0,13-.36L76,3.2l0,.42c-.19,1.8-.35,3.77-.47,5.86v.24l-.24.06a28.09,28.09,0,0,1-6.79.84V11a20.45,20.45,0,0,0,6.43-.27l.35,0,0,.35c.13,1.86.19,3.67.19,5.38v.28l-.27,0a22,22,0,0,1-6.76.36l0,.65A18.09,18.09,0,0,0,75,17.41l.35-.07,0,.36c.18,2.29.43,4.47.73,6.47l0,.3-.29.07A21.25,21.25,0,0,1,71.15,25.08Zm-7.76-2.23a19.94,19.94,0,0,0,12,1.12c-.27-1.83-.49-3.8-.66-5.86a17.35,17.35,0,0,1-6.8.16l-.26-.06.12-1.93.36.07a19.73,19.73,0,0,0,6.62-.25c0-1.51-.06-3.09-.16-4.71a19.19,19.19,0,0,1-6.57.16l-.24-.06,0-1.55.36,0a25.93,25.93,0,0,0,6.72-.76c.1-1.85.24-3.6.41-5.23a44.92,44.92,0,0,1-12.35.36A128.8,128.8,0,0,1,63.39,22.85Z"/><path class="cls-1" d="M89.86.4a45.36,45.36,0,0,1,.29,5.67q-8.66,3-6.25,3.78Q93,11.14,93,14.19t-3.77,5.7a60,60,0,0,1-9.95,5.42q-.9-3.87-2-7.71Q87.25,16,83,15.21q-5.91-.12-6.34-5.87T89.86.4Z"/><path class="cls-2" d="M79.06,25.77,79,25.39c-.6-2.56-1.27-5.15-2-7.7l-.1-.35.36-.06c4.89-.79,6.23-1.29,6.59-1.51a4.62,4.62,0,0,0-.91-.24c-4.06-.08-6.3-2.15-6.61-6.17S80.41,2.27,89.79.08L90.15,0l0,.37a45.54,45.54,0,0,1,.28,5.71V6.3l-.22.08c-6.07,2.1-6.52,2.88-6.55,3a.78.78,0,0,0,.3.13c6.26.88,9.34,2.4,9.34,4.65s-1.32,4.14-3.91,6a60.71,60.71,0,0,1-10,5.45Zm-1.35-7.91c.65,2.32,1.26,4.67,1.81,7a59.81,59.81,0,0,0,9.54-5.22c2.4-1.7,3.63-3.53,3.63-5.44s-3.06-3.2-8.84-4c-.55-.17-.8-.42-.8-.76,0-.62.82-1.49,6.78-3.57a46.43,46.43,0,0,0-.25-5C80.93,2.87,76.69,5.73,77,9.31s2.25,5.5,6,5.58c1,.17,1.61.38,1.6.86S84.57,16.73,77.71,17.86Z"/><path class="cls-1" d="M97.39,23.27q-3.19-1.85-3.72-8.21A12.22,12.22,0,0,1,97.31,4.69q4.17-4,10.53-1.6c-.3,2.09-.64,4.08-1,6a6.37,6.37,0,0,0-4-.32,3.47,3.47,0,0,0-2.32,2.62,4,4,0,0,0,.82,3.86c1,1.16,2.8,1.63,5.54,1.39l.58,7.31Q100.59,25.11,97.39,23.27Z"/><path class="cls-2" d="M102.69,24.71a10.88,10.88,0,0,1-5.46-1.16h0c-2.22-1.28-3.52-4.13-3.88-8.47A12.59,12.59,0,0,1,97.09,4.45C100,1.7,103.6,1.14,108,2.78l.24.1,0,.25c-.3,2.08-.64,4.11-1,6l-.07.37-.36-.13a6.11,6.11,0,0,0-3.77-.32,3.16,3.16,0,0,0-2.1,2.4A3.66,3.66,0,0,0,101.6,15c.88,1.07,2.65,1.5,5.26,1.28l.33,0,.63,7.93-.29.05A29.62,29.62,0,0,1,102.69,24.71ZM97.55,23c2,1.15,5.23,1.38,9.57.67L106.59,17c-2.66.17-4.51-.34-5.49-1.53a4.29,4.29,0,0,1-.88-4.16,3.78,3.78,0,0,1,2.54-2.84,6.37,6.37,0,0,1,3.82.21c.33-1.71.63-3.51.9-5.36-4-1.46-7.29-.92-9.94,1.62A12,12,0,0,0,94,15c.34,4.11,1.53,6.79,3.55,8Z"/><path class="cls-1" d="M113.94,22.23a10.88,10.88,0,0,1-5-5.73,11.22,11.22,0,0,1-.51-7.71,7.65,7.65,0,0,1,4.31-5.2,7.28,7.28,0,0,1,6.62.39,10.89,10.89,0,0,1,5,5.72,11.34,11.34,0,0,1,.53,7.73,7.68,7.68,0,0,1-4.32,5.18A7.33,7.33,0,0,1,113.94,22.23ZM116.39,15a1.33,1.33,0,0,0,1.28-.65,2.27,2.27,0,0,0,.28-1.74,3.61,3.61,0,0,0-.9-1.81,2.39,2.39,0,0,0-1.56-.84,1.35,1.35,0,0,0-1.28.63A2.41,2.41,0,0,0,114,12.3a3.59,3.59,0,0,0,.89,1.82A2.35,2.35,0,0,0,116.39,15Z"/><path class="cls-2" d="M117.71,23.55a8.41,8.41,0,0,1-3.92-1h0a11.28,11.28,0,0,1-5.2-5.89,11.7,11.7,0,0,1-.53-7.94,8,8,0,0,1,4.5-5.39,7.64,7.64,0,0,1,6.91.39,11.23,11.23,0,0,1,5.19,5.89,11.65,11.65,0,0,1,.54,7.94,8,8,0,0,1-4.5,5.39A7.38,7.38,0,0,1,117.71,23.55ZM114.09,22a7.05,7.05,0,0,0,6.35.36,7.4,7.4,0,0,0,4.14-5,11,11,0,0,0-.52-7.5,10.56,10.56,0,0,0-4.9-5.56,7,7,0,0,0-6.34-.38,7.41,7.41,0,0,0-4.13,5,11,11,0,0,0,.5,7.5,10.66,10.66,0,0,0,4.9,5.57Zm2.42-6.66h-.14a2.65,2.65,0,0,1-1.77-.94,3.93,3.93,0,0,1-1-2,2.72,2.72,0,0,1,.3-2,1.69,1.69,0,0,1,1.58-.78,2.6,2.6,0,0,1,1.77.94,3.85,3.85,0,0,1,1,2,2.54,2.54,0,0,1-.34,2A1.61,1.61,0,0,1,116.51,15.29Zm-1.14-5a1,1,0,0,0-.89.49,2.1,2.1,0,0,0-.21,1.52,3.25,3.25,0,0,0,.81,1.65,2,2,0,0,0,1.33.73h0a1,1,0,0,0,1-.5,1.9,1.9,0,0,0,.24-1.5,3.19,3.19,0,0,0-.82-1.65,2.08,2.08,0,0,0-1.34-.74Z"/><path class="cls-1" d="M139.28.4a45.36,45.36,0,0,1,.29,5.67q-8.65,3-6.25,3.78,9.1,1.29,9.11,4.34t-3.77,5.7a60,60,0,0,1-9.95,5.42q-.9-3.87-2-7.71,10-1.62,5.69-2.39-5.91-.12-6.34-5.87T139.28.4Z"/><path class="cls-2" d="M128.48,25.77l-.08-.38c-.6-2.56-1.27-5.15-2-7.7l-.1-.35.36-.06c4.89-.79,6.23-1.29,6.59-1.51a4.62,4.62,0,0,0-.91-.24c-4.06-.08-6.3-2.15-6.61-6.17s4.1-7.09,13.48-9.28l.36-.08,0,.37a45.54,45.54,0,0,1,.28,5.71V6.3l-.22.08c-6.07,2.1-6.52,2.88-6.55,3a.78.78,0,0,0,.3.13c6.26.88,9.33,2.4,9.33,4.65s-1.31,4.14-3.9,6a61.12,61.12,0,0,1-10,5.45Zm-1.35-7.91c.65,2.32,1.26,4.67,1.81,7a60.26,60.26,0,0,0,9.54-5.22c2.4-1.7,3.62-3.53,3.62-5.44s-3-3.2-8.83-4c-.55-.17-.8-.42-.8-.76,0-.62.82-1.49,6.78-3.57a46.43,46.43,0,0,0-.25-5c-8.65,2.07-12.89,4.93-12.62,8.51s2.25,5.5,6,5.58c1,.17,1.61.38,1.6.86S134,16.73,127.13,17.86Z"/></g></g></svg>