<svg xmlns="http://www.w3.org/2000/svg" viewBox="0 0 148.27 108.86"><defs><style>.cls-1{fill:#fff;}.cls-2,.cls-3{fill:#9f4492;}.cls-2,.cls-3,.cls-5{stroke:#1d1d1b;stroke-width:2px;}.cls-2,.cls-5{stroke-linejoin:round;}.cls-3{stroke-miterlimit:10;}.cls-4{fill:#1d1d1b;}.cls-5{fill:#70b42d;}</style></defs><title>BACK_BUTTON</title><g id="Capa_2" data-name="Capa 2"><g id="Capa_2-2" data-name="Capa 2"><path class="cls-1" d="M98.23,104.74a49.75,49.75,0,0,0-14.34-34.5,37.26,37.26,0,0,0-12.12-8.31,34.63,34.63,0,0,0-12.9-2.67,3.89,3.89,0,0,0-4,4.25l1.17,12.58a3.9,3.9,0,0,1-1.3,3.27l-6.13,5.41a5.69,5.69,0,0,1-7,.42L3.88,59.36A9,9,0,0,1,.08,50.8l0-.24L3.05,39.21a3.94,3.94,0,0,1,1-1.79L40.78,1.13a3.88,3.88,0,0,1,6.57,2.14l2.11,13.16a3.87,3.87,0,0,0,4.69,3.17c12.92-3,26.66-1.66,40.22,4a94.78,94.78,0,0,1,33.95,24.86c18.3,21,19.87,35,19.93,35.59h0a3.89,3.89,0,0,1-1.33,3.32l-17.75,15.36a3.86,3.86,0,0,1-1.74.86l-24.52,5.16a3.88,3.88,0,0,1-4.68-4Z"/><path class="cls-2" d="M7,40.26,4.1,51.37a5.13,5.13,0,0,0,2.15,4.85l37.8,25.84a1.79,1.79,0,0,0,2.2-.13l6.13-5.41Z"/><path class="cls-3" d="M50.5,56.34s19.62-5.65,36.33,11.25a53.09,53.09,0,0,1,15.45,37.46l24.52-5.17,17.75-15.35L81.15,43.28,57.91,38.64,48.2,42.22Z"/><path class="cls-4" d="M108.67,96.54a8,8,0,0,1-.65,2.83,11.29,11.29,0,0,1-3.19,4.26,8,8,0,0,1-2.55,1.42,8,8,0,0,1,.66-2.84,11.31,11.31,0,0,1,1.34-2.32A10.93,10.93,0,0,1,106.14,98,8.13,8.13,0,0,1,108.67,96.54Z"/><path class="cls-5" d="M108.67,96.54l35.88-12s-1.29-13.14-19-33.42S77.25,14.05,47.22,26L43.69,4,7,40.26,52.38,76.52,49.83,49.13S68.28,39.87,89,56.32A52.23,52.23,0,0,1,108.67,96.54Z"/><polygon class="cls-1" points="42.28 7.76 11.71 38.97 42.47 9.68 42.28 7.76"/><path class="cls-1" d="M90.86,53.91l.33.32c2.25,2.21,15.44,15.6,18.13,28.86C109.32,83.09,107.51,62.58,90.86,53.91Z"/><path class="cls-1" d="M78,26.25s19.46,5.6,30.56,14.91C108.58,41.16,98.24,29.34,78,26.25Z"/></g></g></svg>