<svg xmlns="http://www.w3.org/2000/svg" viewBox="0 0 80.34 76.84"><defs><style>.cls-1{fill:#12100c;}.cls-1,.cls-10,.cls-11,.cls-12,.cls-13,.cls-14,.cls-15,.cls-16,.cls-17,.cls-18,.cls-2,.cls-3,.cls-4,.cls-5,.cls-6,.cls-7,.cls-8,.cls-9{fill-rule:evenodd;}.cls-2{fill:#70b52c;}.cls-3{fill:#dbe8be;}.cls-4{fill:#478b33;}.cls-13,.cls-5{fill:#96c234;}.cls-18,.cls-6{fill:#4ba234;}.cls-7{fill:#ca0b6d;}.cls-8{fill:#fde600;}.cls-9{fill:#e1007b;}.cls-10{fill:#f6bc4b;}.cls-11{fill:#fad13a;}.cls-12{fill:#1d1d1b;}.cls-13{opacity:0.7;}.cls-14{fill:#1d2718;}.cls-15{fill:#8aae2c;}.cls-16{fill:#80bc58;}.cls-17{fill:#fff;}.cls-18{opacity:0.43;}</style></defs><title>DINO</title><g id="Capa_2" data-name="Capa 2"><g id="Capa_3" data-name="Capa 3"><path class="cls-1" d="M64.78,36.16a9.12,9.12,0,0,0,1.7-2.54c.07-.56-.92-1.48-1.27-1.8l-.11-.09L65,31.62A13.7,13.7,0,0,1,61.51,24a8.31,8.31,0,0,1,2-6.16,10,10,0,0,1,7-3.26,9.07,9.07,0,0,1,9.07,5.94C81.73,26,79,33.24,74.5,36.78A10.79,10.79,0,0,1,66,39.3l-3.25-.56Z"/><path class="cls-2" d="M66.51,30.37c3.33,3,1.72,4.61-.21,7a8.86,8.86,0,0,0,7-2.12c3.8-3,6.3-9.35,4.5-14C73.94,11.33,56.47,18.43,66.51,30.37Z"/><path class="cls-3" d="M73.25,29.77a4.43,4.43,0,0,0,2.64-2.53A6.94,6.94,0,0,0,76.4,23a4.36,4.36,0,0,0-4.33-3.93c-1.25-.13-2.25.07-1.56.5C73.49,21.45,76.39,23.42,73.25,29.77Z"/><path class="cls-2" d="M8.69,46.14C7.53,48,6.52,44.89,3.33,48.51c-5.21,4.23.66,10.77,2.2,13.21,5.23,8.34,16.37,13.6,27.19,14.17,5.59.3,11.22-1.79,15.64-3,8.73-8.2,18.56-18.07,12.4-28.69C54.51,42.8,14.3,41,8.69,46.14Z"/><path class="cls-2" d="M15.44,11.83C-.49,22.49,6,38.86,5.73,45.5l4.52.38,2.26-.42c0,.16,40.66.31,48.53-.39l-.56-1.67c-.85-2-2-1.62-3.17-3.46-.19-2.28.78-8.71,1-11.52.21-3.15.18-8.55-2.48-10.42-.91-1.32-4.27-5.41-8.83-7-2.71,5.93-5.83,7.4-12.09,7.8C42.76,1.26,28,3.41,15.44,11.83Z"/><path class="cls-4" d="M47.07,10.39c-.11.51-1.71,3.48-1.37,3.41,3.49-.67,11.52,5.59,12.4,12.17.15,1.11.58-5.61-2.48-9.49S47.12,10.14,47.07,10.39Z"/><path class="cls-5" d="M10.32,45l2.5-.13-.09.5,1.16,0c-1-1.34-1.66-1.32-2.87-2.92-.18,1.8.06.4-.66,1l-.47-1.14-.12,1.37-3.52,1c0-2.35-.23-4.93-.25-7.32a33.63,33.63,0,0,1,3.93-16c3.26-7.11,18.14-13.93,24.66-13-1.46-2.45-6.26-3.1-10.72-1.49-2.07.75-4.05,2.46-6.94,4C-1.9,21.16,6.17,38.14,5.89,45Z"/><path class="cls-6" d="M2.6,54.78C2,56.64,5.13,61.62,6.81,64c6,8.56,20.34,12.65,31.51,11.1,3.91-.55,7.44-1.4,10.58-3.7,2.3-1.69,6.85-4.22,8.31-6.32,4.53-6.48,5.63-12.45.91-3.64C52.65,71.65,41.81,74.74,32.06,74A35.07,35.07,0,0,1,6.18,59.27,23.84,23.84,0,0,0,4.3,56.1,5.15,5.15,0,0,0,2.6,54.78Z"/><path class="cls-7" d="M40,67.88c.11,0,.21.12.33.11,4.23-.22,13.09-4.16,16.23-7.1,2.6-3.11,2.78-4.26,2.87-8.4C59.19,48,56.45,36.92,49,41.65c-5,3.21-.2,12.91-2.38,19.06-1,2.83-2.76,4.05-4.77,6-.14.15-.27.15-.42.3C40.54,67.51,40.59,67.22,40,67.88Z"/><path class="cls-8" d="M23.41,5.64c-1.58.77-4.28,4.21-5.19,5.67C25.07,8.8,28,6.18,33,8.45c2.15,1,2.4,2.12,2.15,4.5-.2,1.86-.91,3.44-.3,6,3.64-.62,8.12-2.57,9.72-4C53.36,7.2,35.38,1.89,23.41,5.64Z"/><path class="cls-9" d="M52,59.77c3.53-5,3.87-6.45,2.54-12.5l-1.9-3.16c-6.79-.72-2.47,10.82-.85,13.65-.27,1.31-1.54-.4-2.67-1.68C49,58,50.41,60.27,52,59.77Z"/><path class="cls-10" d="M44.78,13.57c1.09-1.48,2.25-4.08,2-5.84A7.66,7.66,0,0,0,45.1,3.89C42.6.87,29.62-.62,28,3.41c3.19,1.46,3.56-.59,6.41,1.3,1.57-.75,2.13-1,4.53.8,1.2.9.9,1.07,1.67,2.18C42.78,9.13,44.85,8.53,44.78,13.57Z"/><path class="cls-11" d="M23.29,5.68l2.38-.62c-.31,1.26.46,1-.61,1.48.31,0,.61.23,1,0,.16-.08.39-.19.39-.33l.77-1c1.54.37,2.75.07,4,.27,1.7.28,1.4.76,2.29-.73,3.78.79,5.77,2.23,7.59,5.92,1.46,1.48,2.44.59,1.65-1.6C41,7.74,41.64,9,40.64,7.54c-.77-1.11-.45-1.27-1.65-2.16C36.58,3.6,36,4,34.44,4.71c-2.85-1.89-2.88-.64-6.33-1.3,1.77,1,4.37-.79,6.42-.47l1.22.25a5.45,5.45,0,0,0,1.62-.12c-.43-1.14-.37-.9-1.52-1.65C31.69,1.23,25.9,2.25,23.29,5.68Z"/><path class="cls-12" d="M24.93,21.28c5.14,1.09,8.41,5.48,8.41,11.94,0,3.54-2.09,6.92-4.91,9.26-3.59-.45-7.2,3.5-12.3,3.73-6.07.26-7.3-6.58-6.26-11.26.89-4,5-10.72,8.92-12.67A8.3,8.3,0,0,1,24.93,21.28Z"/><path class="cls-13" d="M2.88,54.92C5.9,57.64,7,57.73,11,58.56c-5.57-2.79-9.83-4.46-6-8.8,3.18-3.61,2.43-1.58,3.6-3.47C4.87,45.75-1.17,51.35,2.88,54.92Z"/><path class="cls-1" d="M22.32,41.45c3.59.77,5.15-4.66,2.3-6.78C21.15,34.83,20.24,39.07,22.32,41.45Z"/><path class="cls-1" d="M40.68,39.56c3.5-.15,4.88-5.23,1.79-7C39.27,33.19,38,37.5,40.68,39.56Z"/><path class="cls-12" d="M51.43,60.6c6.49-3,5.53-13.23,1.24-17A15,15,0,0,1,51.43,60.6Z"/><path class="cls-14" d="M33.18,32.59c-.29,1.73-1,4.56.32,5.7,2-3.58,0-9.85,5.86-14.49,2.62-2.05,6.26-3.53,8.81-2.69,2.11.71,2.79,3.29,2.95,5.29,1.71-3.67-2.77-9.09-10.11-4.81C34,26.11,34.15,30.55,33.18,32.59Z"/><path class="cls-15" d="M28.74,43.76l.53-.06,8.52-.86c-1.27-1.08-2-.9-3.09-2.79-1.38-2.4-.24-2.23-2.4-2.84-1.71,2.29-.53,1.67-1.58,3.46C29.43,42.86,29.88,40.62,28.74,43.76Z"/><path class="cls-16" d="M19.75,50A8.26,8.26,0,0,0,17,53c.1.81.09,1.06.93.42a4.6,4.6,0,0,1,2.58-1.77,2.45,2.45,0,0,1,1.95-1c1.29.08,1.66,1.2,1.61-1.17C21.81,48.75,21.66,48.39,19.75,50Z"/><path class="cls-1" d="M17.94,53.23c0,1.55.56,2,2,1.26.79-.39,1.17-1.16,1.44-2.44C21.68,50.56,18.58,52.34,17.94,53.23Z"/><path class="cls-14" d="M17.39,52.29c1.32-1,4.5-4.67,6.05-2.73a3.67,3.67,0,0,1,.42,2.73c.47-.42,1-.39,1.24-1.3C26.66,45.28,19.06,49.16,17.39,52.29Z"/><path class="cls-17" d="M24.93,22.46c5.14,1.08,8.41,5.47,8.41,11.93,0,3.54-2.09,6.92-4.91,9.26-3.61,0-6.89,2.45-12,2.67-6.07.27-7-6.23-6-10.9.9-4.06,4.45-10,8.34-12A8.21,8.21,0,0,1,24.93,22.46Z"/><path class="cls-12" d="M24.35,34.65c1.31.31,2,2,1.62,3.87s-1.8,3.07-3.11,2.76-2-2.05-1.61-3.88S23.05,34.34,24.35,34.65Z"/><path class="cls-17" d="M47.6,42.36c-2.5,2.51-1.07,2.27-4.14,1.63-2.09-.44-5.28-.19-7.53-1.71-5.3-3.57-2.57-7.88-.43-13.28,2.61-6.6,9.82-9,12.85-7.87a2.47,2.47,0,0,1,.56.29c2.54,1.95,2.42,5.84,2.09,9.92a46.29,46.29,0,0,1-1,6.34A9.39,9.39,0,0,1,47.6,42.36Z"/><path class="cls-12" d="M42.5,32.58c1.31.31,2,2,1.62,3.87S42.31,39.52,41,39.21s-2-2.05-1.62-3.88S41.2,32.27,42.5,32.58Z"/><path class="cls-17" d="M24.51,35.7a.6.6,0,0,1,.31.76c-.08.36-.35.61-.61.55s-.4-.41-.32-.77S24.25,35.64,24.51,35.7Z"/><path class="cls-17" d="M42.74,33.41c.26.06.4.4.32.76s-.35.61-.61.55-.4-.41-.32-.77S42.48,33.35,42.74,33.41Z"/><path class="cls-12" d="M40.89,52.14c.17.17,1.18.56.88.36A2.46,2.46,0,0,1,40.51,50c.05-1.27.43-1,.59-1.39C39.8,48.9,39.8,51.11,40.89,52.14Z"/><path class="cls-18" d="M2.6,55.23c-.69,2.69,2.53,6.39,4.21,8.8,6,8.56,20.34,12.65,31.51,11.1,3.91-.55,7.44-1.4,10.58-3.7,2.3-1.69,6.85-4.22,8.31-6.32,4.53-6.48,5.74-15.28,1-6.48C52,66.9,28.22,77.83,13.68,60c-1.4,2.9-8.23-2.82-8.89-3.15C3.66,56.29,3.45,55.67,2.6,55.23Z"/><path class="cls-1" d="M49.19,40.69c-1.6,1-2,2-3.37,3.71L37.54,43c-8.13-.47-20.31,1.85-25.75,8.55,9.26-7.18,22.3-10.11,33.81-6.17l0,2.2-2.28.74,2.37.85a3.2,3.2,0,0,1-3.51-.05c.21,2.44,1.67,2.81,3.9,3.32.34,7.35.38,9.47-4.89,14l-.6.5c.37.5-1.93,1-.53.82a12.67,12.67,0,0,1,1.24-.58,2,2,0,0,0,.94-.62c1.84-1.81,3.4-3.13,4.37-5.83C48.81,54.56,44,44.86,49,41.65c6.47-4.12,9.39,3.72,10.22,8.8C60,55.19,58.8,59.08,54.76,62a38.06,38.06,0,0,1-13.07,5.73c-.6.1-1.32.14-1.65.16.38-.38,0,.13.38-.82-3.68,1-5.19,2-9.4,1.4a23.89,23.89,0,0,1-14.14-7.32c-.73-.8-1.65-2.09-2.39-3-1.67-2.08-.54-2.87-2.68-2.89a41.81,41.81,0,0,0,3.27,6.19c6.1,8.36,18.42,11.28,28.79,8A33.67,33.67,0,0,0,54.13,64c5.17-4,6.87-6.91,6.06-12.84C59.67,47.33,58,43.5,56,41.6,54.51,40.25,52.52,39.21,49.19,40.69Z"/><path class="cls-1" d="M41.51,66.18s1.12-.08.68.29A11.11,11.11,0,0,1,40,67.88l-.32.13c-.11,0-1-.42-.77-.5A7.25,7.25,0,0,0,41.51,66.18Z"/><path class="cls-1" d="M23.4,6.16C28.66-.1,40.86-.08,44.85,4.68c2,2.46,1.5,6.81-.43,9.42C41.64,17.41,39.37,18,35,18.51l-.44,1.1c6.18-.39,9.7-1.61,12.37-7.42l.71.25a15.63,15.63,0,0,1,4.59,2.84c5,3.94,6.31,7.48,5.88,14-.19,2.75-1.15,9.05-1,11.29a7,7,0,0,0,2.08,1.82c1.15.91,2.22,4.28,2.5,5.69,1.22,6.08-1.57,11.77-5.23,17S44.63,74.18,38.39,75c-11,1.52-25.21-2.48-31.14-10.87-1.66-2.36-4.84-6.43-4.16-9.06-4-3.5,2.24-9.28,6-8.76l2.87.91c-2.08-2.35-4.22-1.77-5.74-1.68.25-6.3-6.25-22.27,8.09-32a46.93,46.93,0,0,1,8.21-4,12.53,12.53,0,0,0-3.06.46,11.32,11.32,0,0,1,4-3.89ZM4.52,22.6C1.37,30,4.09,35.87,4.38,45.35,1.94,47.73-.42,50.19.06,53.81c.14,1,.93,1.65,1.54,2.61,2.09,9.26,10.31,15.23,18.51,18.11a39.61,39.61,0,0,0,17.32,2.09c13.31-1.45,25.32-11.07,26-24.91A13.66,13.66,0,0,0,58.75,40.2c.5-3.44.77-8,1.15-12,.74-7.8-3.36-12-8.92-16.08-1.47-.89-1.76-.42-2.35-1.76C47.93,2.45,42.91-.82,31.46.17a26.42,26.42,0,0,0-9.54,5.21c-1.43,1.19-2.48,2.92-3.85,3.91s-2.79,1.05-4.44,2.29C10,13.83,6.18,18.68,4.52,22.6Z"/><path class="cls-12" d="M24.79,8.62c6.2-1.44,11.09-.71,10.07,5.92C37.68,6.4,28.66,7,24.79,8.62Z"/></g></g></svg>