<svg xmlns="http://www.w3.org/2000/svg" viewBox="0 0 150 161.05"><defs><style>.cls-1,.cls-25{fill:#fff;}.cls-2{fill:#b835ac;}.cls-10,.cls-11,.cls-12,.cls-13,.cls-14,.cls-15,.cls-16,.cls-17,.cls-18,.cls-19,.cls-2,.cls-20,.cls-21,.cls-22,.cls-23,.cls-24,.cls-25,.cls-26,.cls-3,.cls-4,.cls-5,.cls-6,.cls-7,.cls-8,.cls-9{fill-rule:evenodd;}.cls-3{fill:#f4b0c0;}.cls-4{fill:#70b52c;}.cls-5{fill:#ffec00;}.cls-6{fill:#e50080;}.cls-7{fill:#7dcced;}.cls-8{fill:#b8d376;}.cls-20,.cls-9{fill:#1d1d1b;}.cls-9{stroke:#1d1d1b;stroke-miterlimit:22.93;stroke-width:0.5px;}.cls-10{fill:#12100c;}.cls-11{fill:#dbe8be;}.cls-12{fill:#478b33;}.cls-13,.cls-21{fill:#96c234;}.cls-14,.cls-26{fill:#4ba234;}.cls-15{fill:#ca0b6d;}.cls-16{fill:#fde600;}.cls-17{fill:#e1007b;}.cls-18{fill:#f6bc4b;}.cls-19{fill:#fad13a;}.cls-21{opacity:0.7;}.cls-22{fill:#1d2718;}.cls-23{fill:#8aae2c;}.cls-24{fill:#80bc58;}.cls-26{opacity:0.43;}</style></defs><title>LOGO-DINOS</title><g id="Capa_2" data-name="Capa 2"><g id="Capa_3" data-name="Capa 3"><path class="cls-1" d="M76.16.05C89.34.47,100.77,10.22,108.65,20c10,12.47,17.34,28.37,21.47,43.78a121.07,121.07,0,0,1,3.76,21.3h6.06A10.08,10.08,0,0,1,150,95.13v32.94a10.09,10.09,0,0,1-10.06,10.07H120C109.3,151.91,93.17,161,75.54,161.05s-32.71-9.39-43.41-22.91H10.06A10.09,10.09,0,0,1,0,128.07V95.13A10.08,10.08,0,0,1,10.06,85.07h6.1a113.92,113.92,0,0,1,5.55-26.14c4.92-14.79,12.95-30,23.32-41.71A62.58,62.58,0,0,1,60.2,4.34C65,1.56,70.52-.32,76.16.05Z"/><path class="cls-2" d="M76.05,2.16c27,.82,53.29,44.72,55.87,85h8a8,8,0,0,1,7.95,7.95v32.94a8,8,0,0,1-7.95,8h-21c-10.79,14.41-26.86,22.85-43.41,22.92S44.12,150.27,33.16,136H10.06a8,8,0,0,1-8-8V95.13a8,8,0,0,1,8-7.95h8.06C20.76,46.31,51.36.5,76.05,2.16Z"/><path class="cls-3" d="M54.33,85.16a4.18,4.18,0,1,1-4.18,4.18A4.18,4.18,0,0,1,54.33,85.16Z"/><path class="cls-4" d="M107.7,92.14c1.46,1.29.75,2-.09,3.06a3.86,3.86,0,0,0,3-.92c1.66-1.32,2.75-4.09,2-6.12C111,83.83,103.32,86.93,107.7,92.14Z"/><path class="cls-5" d="M68.19,94.17a7.39,7.39,0,0,0-4.22.91A7.75,7.75,0,0,0,61,98.21c-1.56,2.86-1.39,5.93-.74,9.27.9,4.56,3.49,8.62,8.71,8a5.3,5.3,0,0,0,2.14-.7,3,3,0,0,0,.77-.68,3.61,3.61,0,0,0,.66-1.1,5.17,5.17,0,0,0-.35-3.52c-.56-1.22-1.5-2.19-2.33-3.6a14.27,14.27,0,0,1,1.31-1.09,21,21,0,0,0,1.66,4.86c1.18,2.51,3,5,5.49,5.7a5.54,5.54,0,0,0,6.13-2.57c2.14-3.37,2.2-9.15,1.57-12-.92-4.15-4.6-8.23-9.19-7-2.23.58-2.68,2.76-2.49,4.8-1.13-.8-2.32-4-6.19-4.44Zm8.18,8.22-.46-1.11.8.42Z"/><path class="cls-6" d="M111.05,96.5c-.8,1.46-.1,3.65,1,4.79.57.59,1.14.9,1.34,1.31-1.34-.34-2.43-.7-3.71.37-1.1.94-1.17,2.12-1.13,3.54a11.43,11.43,0,0,0,.8,3.87c1.94,4.89,8.5,5.59,13,4.51,2.7-.65,5.12-2.08,6.15-4.57,1.49-3.6-.77-6-3.34-8.06s-7.57-4-7.94-4.45c.66-.48.11-.08,1.16-.27a9.09,9.09,0,0,0,.89-.25c.77.93,1.2,3.35,5,2.63,2.39-.45,3-2.87,1-4.3A9.3,9.3,0,0,0,120.79,94C118.32,93.73,112.43,93.94,111.05,96.5Z"/><path class="cls-7" d="M39.52,113.31a8.13,8.13,0,0,0,3.7-8.11c-.55-5.45-6.3-11.08-11.73-11.35-2.45-.12-6.13.54-7.84,2.35a3.77,3.77,0,0,0-1.06,3.8c.58,1.58,1.81.14,1.83,3.31,0,1.93.3,8.62,0,10A6.53,6.53,0,0,0,28,115a18,18,0,0,0,11.56-1.71Zm-9.32-9.86c0-.69.15-1.51.95-1.6,3-.36,5.38,1.33,5.12,4.51-.19,2.23-3.49,3.82-5.35,2.6-.5-1.27-.09-2.88-.4-3.84-.08-.27-.17-.17-.28-.7A4.48,4.48,0,0,1,30.2,103.45Z"/><path class="cls-4" d="M98.05,116.18c6.34,0,10.47-4.12,9.33-10.44s-3.68-11.68-9.33-12.09c-5.46.1-10.63,7.65-10.63,13.88s4.29,8.65,10.63,8.65Zm-.46-9.31c-1.1,0-1.84-.42-1.84-1.5s.89-2.39,1.84-2.41,1.42,1,1.62,2.1A1.47,1.47,0,0,1,97.59,106.87Z"/><path class="cls-8" d="M110.69,91.35a1.52,1.52,0,0,0,.89-.85,2.35,2.35,0,0,0,.17-1.42,1.45,1.45,0,0,0-1.45-1.31c-.42,0-.75,0-.52.16C110.77,88.56,111.75,89.22,110.69,91.35Z"/><path class="cls-3" d="M44.56,105.42c-.19,3.48.62,8,4.3,9.36,5.57,1.84,10.11-1.21,9.71-6.88-.19-2.67-1.26-4.4-2.34-6.69,1.34-2,2.87-4.18.06-6a7.81,7.81,0,0,0-5.48-1A6.22,6.22,0,0,0,48,95.7C45.62,98,44.73,102.49,44.56,105.42Z"/><path class="cls-9" d="M54.33,85.16a4.18,4.18,0,1,1-4.18,4.18,4.18,4.18,0,0,1,4.18-4.18Zm0,.69a3.49,3.49,0,1,0,3.48,3.49A3.49,3.49,0,0,0,54.33,85.85Z"/><path class="cls-9" d="M76.37,102.39l-.46-1.11.8.42-.34.69Zm.81-8a3,3,0,0,0-2.05,2.1,4.09,4.09,0,0,0,2.31,5l.08.48c-.87.69-.25,1.92-.56,2.73-.51.13-.61-.25-.74-.71a19.31,19.31,0,0,0-3.94-6.72,6.79,6.79,0,0,0-4.73-2.37A6.94,6.94,0,0,0,61,100a14.64,14.64,0,0,0-.32,6.21c.6,3.24,2,7.9,5.8,8.56,1.2.21,3.79.12,4.93-1a2.79,2.79,0,0,0,.56-2.63A12.52,12.52,0,0,0,68.93,106v-.6c1.94-.39,1.86-2.27,2.61-1.9l.74,2.87c1.26,3.69,3.06,7.84,6.56,8.39,5.21.82,6.81-5.69,6.88-9.68a14.24,14.24,0,0,0-1.39-6.82c-1.2-2.18-2.67-3.55-5.15-3.92a5.13,5.13,0,0,0-2,0Zm-9-.19a7.39,7.39,0,0,0-4.22.91A7.75,7.75,0,0,0,61,98.21c-1.56,2.86-1.39,5.93-.74,9.27.9,4.56,3.49,8.62,8.71,8a5.3,5.3,0,0,0,2.14-.7,3,3,0,0,0,.77-.68,3.61,3.61,0,0,0,.66-1.1,5.18,5.18,0,0,0-.35-3.52c-.56-1.21-1.5-2.19-2.33-3.59a11.63,11.63,0,0,1,1.31-1.09,21.08,21.08,0,0,0,1.66,4.85c1.18,2.51,3,5,5.49,5.7a5.54,5.54,0,0,0,6.13-2.57c2.14-3.37,2.2-9.14,1.57-12-.92-4.14-4.6-8.22-9.19-7-2.23.57-2.68,2.75-2.49,4.79C73.25,97.81,72.06,94.64,68.19,94.17Z"/><path class="cls-9" d="M117.28,96.78l-.76,0a14.8,14.8,0,0,1-.19,1.59c3,1.19,8.56,3.74,10.86,6.88a4.71,4.71,0,0,1,.95,4.18,7.72,7.72,0,0,1-3.81,4.16,12.1,12.1,0,0,1-4.32,1.08c-4.66.34-9.3-.88-10.5-5.87-.48-2-.79-5.74,2.11-5.82a4.62,4.62,0,0,1,2.88.66c.57.47,1.25-.2.84-.53-.92-.73-2.3-1.62-2.73-2a5.38,5.38,0,0,1-1.25-2.79c0-1.53.76-2.2,2-2.81,2.78-1.15,8.53-1.33,11.14.51a2.35,2.35,0,0,1,1.14,2.27c-.37,1.43-3.61,1.38-4.49.63a5.66,5.66,0,0,1-1.43-2.28c-.61,0-2,.71-2.47.23Zm-6.23-.28c-.8,1.47-.1,3.65,1,4.79.57.59,1.14.9,1.34,1.31-1.34-.34-2.43-.7-3.71.38-1.1.93-1.17,2.11-1.13,3.53a11.43,11.43,0,0,0,.8,3.87c1.94,4.89,8.5,5.59,13,4.51,2.7-.65,5.12-2.08,6.15-4.57,1.49-3.6-.77-6-3.34-8.06s-7.57-4-7.94-4.45c.66-.48.11-.08,1.16-.27.3-.05.67-.19.89-.24.77.92,1.2,3.34,5,2.62,2.39-.45,3-2.87,1-4.3A9.3,9.3,0,0,0,120.79,94C118.32,93.73,112.43,94,111.05,96.5Z"/><path class="cls-9" d="M25.28,113.31c-.23-1.7-.1-7.54-.13-9.71,0-2.41.11-2.06-1.5-3.49-2.13-1.9,1.6-6.09,8-5.59a13.51,13.51,0,0,1,6.66,3.15,11.76,11.76,0,0,1,3.92,5.94,8.69,8.69,0,0,1-1.5,7.77c-2.82,3.27-10.85,4.3-15.43,1.93Zm14.24,0a8.12,8.12,0,0,0,3.7-8.11c-.55-5.45-6.3-11.08-11.73-11.35-2.45-.12-6.13.54-7.84,2.35a3.77,3.77,0,0,0-1.06,3.8c.58,1.58,1.81.14,1.83,3.31,0,1.94.3,8.62,0,10A6.53,6.53,0,0,0,28,115,17.86,17.86,0,0,0,39.52,113.31Z"/><path class="cls-9" d="M35.54,105.48c.27,3.21-3.28,3.62-4.13,3-.05-.83,0-2.47-.08-3.13s-.33-.53-.41-1.15a4.9,4.9,0,0,1,0-.77c0-.68-.07-.82.58-1a3.32,3.32,0,0,1,4.08,3Zm-5.34-2a4.48,4.48,0,0,0,0,1c.11.54.2.43.28.7.31,1-.1,2.57.4,3.85,1.86,1.21,5.16-.38,5.35-2.6.26-3.18-2.15-4.88-5.12-4.52C30.35,101.94,30.23,102.76,30.2,103.45Z"/><path class="cls-9" d="M107.7,92.14c1.46,1.3.75,2-.09,3.06a3.86,3.86,0,0,0,3-.92c1.66-1.32,2.75-4.09,2-6.12-1.68-4.33-9.31-1.23-4.93,4Zm.44-.43c-.92-1.11-1.75-2.8-.63-4.07a2.88,2.88,0,0,1,2-.93h.35a2.49,2.49,0,0,1,2.18,1.66c.69,1.79-.34,4.29-1.79,5.44a4,4,0,0,1-1.37.74,2.34,2.34,0,0,0,.26-.77A2.46,2.46,0,0,0,108.14,91.71Z"/><path class="cls-9" d="M98.08,93.26c6.41.47,8.73,6.93,9.71,12.36,1.2,6.65-3.24,11-9.75,11-6.12,0-11-2.32-11-9.1a15.54,15.54,0,0,1,1.69-6.72c1.71-3.48,5.15-7.42,9.34-7.5h0ZM98,116c6.22,0,10.26-4,9.14-10.24S103.58,94.27,98,93.87c-5.36.1-10.42,7.5-10.42,13.61S91.82,116,98,116Z"/><path class="cls-9" d="M97.61,102.62c1.26.09,1.72,1.37,1.91,2.44a1.76,1.76,0,0,1-1.92,2.16c-1.21,0-2.17-.46-2.17-1.8a3,3,0,0,1,.33-1.32,2.36,2.36,0,0,1,1.84-1.48h0Zm0,4.1a1.36,1.36,0,0,0,1.49-1.67c-.18-1-.58-1.87-1.49-1.93s-1.7,1.22-1.7,2.21S96.57,106.72,97.58,106.72Z"/><path class="cls-9" d="M55.48,101.06a21.19,21.19,0,0,0,1.34,2.85c2.81,6.28-.28,12.06-7.09,10.45a5.52,5.52,0,0,1-3.92-3.66c-1.22-3.15-.63-11.84,2.64-14.6a7.94,7.94,0,0,1,2.11-1.17c2.4-.72,6.19.23,6.57,2.53.25,1.5-.93,2.46-1.65,3.6Zm-10.92,4.36c-.19,3.48.62,8,4.3,9.36,5.57,1.84,10.11-1.21,9.71-6.88-.19-2.67-1.26-4.39-2.34-6.69,1.34-2,2.87-4.18.06-6a7.81,7.81,0,0,0-5.48-1A6.22,6.22,0,0,0,48,95.7C45.62,98,44.73,102.49,44.56,105.42Z"/><path class="cls-10" d="M100.17,53A7.36,7.36,0,0,0,101.56,51c.06-.47-.74-1.22-1-1.48l-.08-.08-.08-.09a11.25,11.25,0,0,1-2.87-6.23A6.83,6.83,0,0,1,99.16,38a8.18,8.18,0,0,1,5.74-2.67,7.45,7.45,0,0,1,7.45,4.87c1.74,4.5-.54,10.43-4.2,13.33a8.83,8.83,0,0,1-7,2.07l-2.66-.47Z"/><path class="cls-4" d="M101.59,48.28c2.74,2.44,1.41,3.79-.17,5.76a7.26,7.26,0,0,0,5.74-1.74c3.12-2.48,5.17-7.68,3.69-11.5C107.69,32.65,93.35,38.48,101.59,48.28Z"/><path class="cls-11" d="M107.13,47.79a3.62,3.62,0,0,0,2.16-2.07,5.69,5.69,0,0,0,.42-3.48A3.59,3.59,0,0,0,106.16,39c-1-.1-1.85.06-1.28.42C107.32,41,109.7,42.58,107.13,47.79Z"/><path class="cls-4" d="M54.12,61.24c-.95,1.55-1.78-1-4.4,1.94-4.28,3.48.54,8.84,1.8,10.85C55.82,80.87,65,85.19,73.85,85.66c4.59.24,9.21-1.47,12.84-2.43,7.17-6.73,15.24-14.84,10.18-23.56C91.74,58.49,58.73,57,54.12,61.24Z"/><path class="cls-4" d="M59.66,33.07c-13.08,8.74-7.75,22.19-8,27.64L55.4,61l1.86-.34c0,.13,33.38.25,39.84-.32L96.64,59c-.7-1.65-1.6-1.34-2.6-2.85-.16-1.87.64-7.15.79-9.46.18-2.58.16-7-2-8.55a16.6,16.6,0,0,0-7.25-5.76c-2.22,4.87-4.78,6.07-9.92,6.4C82.09,24.39,70,26.15,59.66,33.07Z"/><path class="cls-12" d="M85.63,31.88c-.09.42-1.4,2.86-1.13,2.8,2.87-.55,9.47,4.6,10.19,10,.12.91.47-4.61-2-7.79S85.67,31.68,85.63,31.88Z"/><path class="cls-13" d="M55.46,60.27l2-.1-.07.4,1,0c-.86-1.1-1.37-1.09-2.35-2.4-.15,1.48,0,.33-.55.81l-.39-.94L55,59.21,52.12,60c0-1.93-.19-4-.21-6a27.69,27.69,0,0,1,3.23-13.14C57.81,35,70,29.42,75.39,30.18c-1.21-2-5.14-2.54-8.81-1.22-1.69.61-3.32,2-5.69,3.32-15.46,8.44-8.84,22.39-9.07,28.05Z"/><path class="cls-14" d="M49.12,68.33c-.51,1.52,2.08,5.62,3.46,7.59,4.93,7,16.7,10.39,25.87,9.11,3.21-.44,6.1-1.14,8.68-3C89,80.61,92.75,78.53,94,76.81c3.71-5.32,4.62-10.22.74-3-4.49,8.36-13.38,10.9-21.39,10.29A28.81,28.81,0,0,1,52.06,72a21.69,21.69,0,0,0-1.54-2.6A4.19,4.19,0,0,0,49.12,68.33Z"/><path class="cls-15" d="M79.86,79.08c.09,0,.17.1.27.09,3.47-.18,10.75-3.41,13.32-5.83,2.14-2.55,2.29-3.49,2.36-6.9-.23-3.7-2.48-12.78-8.59-8.89-4.13,2.63-.16,10.6-2,15.64-.83,2.33-2.26,3.33-3.92,5-.11.12-.22.12-.34.25C80.27,78.78,80.31,78.54,79.86,79.08Z"/><path class="cls-16" d="M66.2,28c-1.3.63-3.51,3.45-4.26,4.66,5.63-2.07,8-4.22,12.12-2.35,1.76.81,2,1.74,1.76,3.7-.17,1.52-.75,2.82-.24,4.93a19.84,19.84,0,0,0,8-3.27C90.8,29.26,76,24.9,66.2,28Z"/><path class="cls-17" d="M89.65,72.42c2.9-4.1,3.18-5.29,2.09-10.26l-1.56-2.59c-5.57-.59-2,8.88-.7,11.21-.22,1.07-1.26-.34-2.19-1.39C87.22,71,88.37,72.83,89.65,72.42Z"/><path class="cls-18" d="M83.75,34.5c.89-1.22,1.85-3.36,1.65-4.8A6.31,6.31,0,0,0,84,26.54c-2.05-2.48-12.7-3.7-14-.39,2.61,1.2,2.92-.48,5.26,1.07,1.29-.62,1.75-.8,3.72.66,1,.73.74.87,1.37,1.79C82.11,30.85,83.81,30.35,83.75,34.5Z"/><path class="cls-19" d="M66.1,28l2-.52c-.25,1,.38.79-.5,1.22.26,0,.5.19.82,0,.13-.07.32-.16.32-.28l.63-.79a27.11,27.11,0,0,0,3.31.22c1.4.23,1.15.62,1.89-.6a7.79,7.79,0,0,1,6.22,4.86c1.21,1.21,2,.49,1.36-1.31-1.46-1.14-.94-.12-1.76-1.3-.63-.92-.36-1.05-1.36-1.78-2-1.47-2.44-1.17-3.73-.55-2.34-1.55-2.36-.53-5.2-1.07,1.46.83,3.59-.64,5.28-.38l1,.2a4.17,4.17,0,0,0,1.32-.1c-.35-.93-.29-.73-1.24-1.35C73,24.36,68.25,25.2,66.1,28Z"/><path class="cls-20" d="M67.45,40.83c4.23.88,6.91,4.49,6.91,9.79a10.33,10.33,0,0,1-4,7.61c-2.94-.37-5.9,2.87-10.09,3.06-5,.22-6-5.4-5.14-9.24.73-3.3,4.13-8.81,7.32-10.4A6.74,6.74,0,0,1,67.45,40.83Z"/><path class="cls-21" d="M49.35,68.44c2.48,2.24,3.36,2.31,6.7,3-4.58-2.29-8.07-3.66-4.93-7.22,2.62-3,2-1.3,3-2.85C51,60.92,46,65.51,49.35,68.44Z"/><path class="cls-10" d="M65.31,57.38c3,.64,4.23-3.83,1.89-5.57C64.35,52,63.6,55.43,65.31,57.38Z"/><path class="cls-10" d="M80.39,55.83c2.87-.12,4-4.29,1.46-5.73A3.27,3.27,0,0,0,80.39,55.83Z"/><path class="cls-20" d="M89.21,73.1c5.33-2.44,4.54-10.86,1-14A12.26,12.26,0,0,1,89.21,73.1Z"/><path class="cls-22" d="M74.22,50.1c-.23,1.43-.82,3.75.27,4.69,1.67-2.94,0-8.09,4.81-11.89,2.15-1.69,5.14-2.91,7.23-2.21,1.74.57,2.29,2.7,2.43,4.34,1.4-3-2.28-7.47-8.3-4C74.92,44.79,75,48.43,74.22,50.1Z"/><path class="cls-23" d="M70.59,59.28l.43-.05,7-.7c-1-.89-1.64-.74-2.53-2.29-1.14-2-.2-1.84-2-2.34-1.41,1.88-.44,1.37-1.3,2.84C71.15,58.54,71.52,56.7,70.59,59.28Z"/><path class="cls-24" d="M63.2,64.39A6.72,6.72,0,0,0,61,66.89c.08.67.07.87.76.34a3.84,3.84,0,0,1,2.13-1.45,2,2,0,0,1,1.6-.85c1.06.07,1.35,1,1.32-1C64.89,63.38,64.77,63.08,63.2,64.39Z"/><path class="cls-10" d="M61.71,67.05c0,1.27.47,1.62,1.66,1,.65-.32,1-1,1.19-2C64.78,64.86,62.24,66.32,61.71,67.05Z"/><path class="cls-22" d="M61.26,66.29c1.09-.83,3.7-3.84,5-2.25a3,3,0,0,1,.35,2.24c.38-.34.81-.31,1-1.07C68.87,60.53,62.63,63.72,61.26,66.29Z"/><path class="cls-25" d="M67.45,41.79c4.23.89,6.91,4.49,6.91,9.8a10.31,10.31,0,0,1-4,7.6c-2.95,0-5.65,2-9.84,2.19-5,.22-5.77-5.11-4.92-9,.75-3.33,3.66-8.22,6.85-9.82A6.79,6.79,0,0,1,67.45,41.79Z"/><path class="cls-20" d="M67,51.8c1.07.25,1.67,1.68,1.33,3.18s-1.48,2.52-2.55,2.26-1.67-1.68-1.33-3.18S65.91,51.54,67,51.8Z"/><path class="cls-25" d="M86.06,58.13c-2,2.06-.87,1.87-3.4,1.33-1.71-.36-4.33-.15-6.18-1.39-4.35-2.93-2.11-6.47-.35-10.91,2.14-5.41,8.07-7.43,10.55-6.46a1.67,1.67,0,0,1,.46.24c2.08,1.6,2,4.8,1.72,8.14a37.18,37.18,0,0,1-.8,5.21A7.66,7.66,0,0,1,86.06,58.13Z"/><path class="cls-20" d="M81.88,50.1c1.07.25,1.67,1.68,1.33,3.18s-1.48,2.52-2.55,2.26S79,53.86,79.33,52.36,80.81,49.84,81.88,50.1Z"/><path class="cls-25" d="M67.11,52.66c.21.05.32.33.26.63s-.29.5-.51.45-.32-.34-.26-.63S66.89,52.61,67.11,52.66Z"/><path class="cls-25" d="M82.08,50.78a.5.5,0,0,1,.26.63c-.07.29-.29.49-.5.44a.5.5,0,0,1-.27-.62C81.64,50.93,81.87,50.73,82.08,50.78Z"/><path class="cls-20" d="M80.55,66.16c.15.14,1,.46.73.29a2,2,0,0,1-1-2c0-1,.34-.78.48-1.13C79.66,63.5,79.66,65.31,80.55,66.16Z"/><path class="cls-26" d="M49.12,68.7c-.56,2.2,2.08,5.25,3.46,7.22,4.93,7,16.7,10.39,25.87,9.11,3.21-.44,6.1-1.14,8.68-3C89,80.61,92.75,78.53,94,76.81c3.71-5.32,4.71-12.55.83-5.32-5.15,6.79-24.64,15.76-36.57,1.13C57.07,75,51.46,70.31,50.92,70,50,69.57,49.82,69.06,49.12,68.7Z"/><path class="cls-10" d="M87.37,56.76c-1.31.82-1.64,1.62-2.77,3.05l-6.79-1.16c-6.67-.38-16.68,1.53-21.15,7,7.61-5.9,18.32-8.31,27.76-5.07l0,1.81L82.57,63l1.94.69a2.62,2.62,0,0,1-2.87,0c.16,2,1.36,2.31,3.19,2.73.29,6,.32,7.77-4,11.47l-.49.41c.31.42-1.58.82-.44.68a9.85,9.85,0,0,1,1-.48,1.59,1.59,0,0,0,.77-.5c1.51-1.49,2.8-2.58,3.59-4.8,1.79-5-2.18-13,2-15.64,5.32-3.38,7.71,3.05,8.39,7.22.64,3.89-.35,7.09-3.66,9.47A31.38,31.38,0,0,1,81.22,79a10.6,10.6,0,0,1-1.36.13c.31-.31,0,.11.32-.67-3,.8-4.27,1.63-7.72,1.15a19.62,19.62,0,0,1-11.62-6c-.59-.66-1.35-1.72-2-2.46-1.38-1.71-.46-2.36-2.21-2.37a34.9,34.9,0,0,0,2.69,5.07c5,6.87,15.12,9.27,23.63,6.55a27.75,27.75,0,0,0,8.43-4.47c4.24-3.3,5.64-5.68,5-10.54-.43-3.12-1.78-6.27-3.46-7.82C91.74,56.4,90.11,55.54,87.37,56.76Z"/><path class="cls-10" d="M81.07,77.69s.92-.07.56.24a9.33,9.33,0,0,1-1.77,1.15l-.26.11c-.09,0-.83-.34-.63-.41A6.17,6.17,0,0,0,81.07,77.69Z"/><path class="cls-10" d="M66.2,28.41c4.32-5.14,14.33-5.13,17.61-1.21,1.68,2,1.23,5.59-.35,7.73-2.29,2.72-4.15,3.2-7.73,3.62l-.36.9c5.07-.32,8-1.32,10.16-6.09l.58.2a13.06,13.06,0,0,1,3.77,2.34C94,39.14,95.06,42,94.7,47.38c-.15,2.26-.94,7.44-.79,9.27a5.87,5.87,0,0,0,1.71,1.49c.95.75,1.82,3.52,2.06,4.68,1,5-1.29,9.66-4.29,13.92S83.63,84.26,78.51,85c-9.07,1.25-20.7-2-25.57-8.93-1.37-1.93-4-5.27-3.42-7.43-3.29-2.88,1.84-7.62,4.9-7.19l2.35.74c-1.7-1.92-3.46-1.45-4.71-1.38.21-5.16-5.13-18.28,6.64-26.24a39.22,39.22,0,0,1,6.74-3.31,10.91,10.91,0,0,0-2.51.38,9.25,9.25,0,0,1,3.27-3.19ZM50.7,41.91c-2.59,6.09-.36,10.89-.12,18.68-2,1.95-3.94,4-3.54,6.94.11.86.76,1.36,1.26,2.14C50,77.28,56.76,82.18,63.49,84.55a32.6,32.6,0,0,0,14.23,1.71c10.93-1.19,20.79-9.09,21.35-20.45a11.22,11.22,0,0,0-3.85-9.46c.41-2.82.63-6.58.94-9.83.61-6.4-2.76-9.86-7.32-13.2-1.21-.73-1.44-.35-1.93-1.45-.58-6.5-4.7-9.19-14.1-8.38A21.75,21.75,0,0,0,65,27.77c-1.18,1-2,2.4-3.17,3.21s-2.28.86-3.64,1.88A21.92,21.92,0,0,0,50.7,41.91Z"/><path class="cls-20" d="M67.34,30.43c5.09-1.19,9.1-.58,8.26,4.86C77.92,28.61,70.52,29.06,67.34,30.43Z"/><path class="cls-25" d="M37.13,129.78a5.86,5.86,0,0,1-3.77-.25c-.8-.46-1.26-1.49-1.39-3.07a4.58,4.58,0,0,1,1.36-3.88,3.47,3.47,0,0,1,3.93-.6c-.11.78-.24,1.53-.38,2.24a2.43,2.43,0,0,0-1.48-.12,1.33,1.33,0,0,0-.87,1,1.51,1.51,0,0,0,.31,1.45,2.36,2.36,0,0,0,2.07.52l.22,2.73Zm11.54-8.21a6.85,6.85,0,0,1,1.42.36q.49,2.94,1.41,6.89a6.79,6.79,0,0,0-2.09.92,26.77,26.77,0,0,1-.8-3l-.29.52-.71,1.22-.7-1.75q0,1.89-.21,3.54a6.62,6.62,0,0,1-2.31-.14c.15-2.56.22-5.07.22-7.55a7.09,7.09,0,0,1,1.9-.35c.29.62.68,1.59,1.16,2.92a26.72,26.72,0,0,0,1-3.63Zm7.83,8.31a7.53,7.53,0,0,1-4.77-.43,47.9,47.9,0,0,0-.18-7.14,16.67,16.67,0,0,0,4.89-.14c-.07.68-.13,1.41-.17,2.2a10,10,0,0,1-2.64.3V125a7.47,7.47,0,0,0,2.54-.08c0,.69.07,1.36.07,2a7.58,7.58,0,0,1-2.62.11l0,.48a6.62,6.62,0,0,0,2.63-.08c.06.86.15,1.67.27,2.42Zm3.68-.06q.18-4.12.06-7.88a4.29,4.29,0,0,1,4.26,1.26,4.87,4.87,0,0,1,1,4.34c-.35,1.74-2.1,2.51-5.28,2.28Zm2.09-2.41c.88,0,1.3-.47,1.25-1.31a1.2,1.2,0,0,0-1.27-1.29c0,.79,0,1.66,0,2.6Zm4.2-3.48a9,9,0,0,1,2.3.09,29.7,29.7,0,0,0,.13,5.43,10.64,10.64,0,0,0-2.47.2,19.24,19.24,0,0,1,0-5.72Zm.86-3a1.29,1.29,0,0,1,1,0,.85.85,0,0,1,.55.63,1.22,1.22,0,0,1-.19.92,1.73,1.73,0,0,1-.81.68,1.31,1.31,0,0,1-1,0,.83.83,0,0,1-.54-.62,1.17,1.17,0,0,1,.19-.92,1.64,1.64,0,0,1,.81-.68Zm3.83,0a22.71,22.71,0,0,1,1.28,4.77,18,18,0,0,0,.79-3.89,17.8,17.8,0,0,1,2,1.06,22.75,22.75,0,0,1-2,6.31,6.74,6.74,0,0,0-1.8-.24A42.43,42.43,0,0,0,69,122.4l2.17-1.53Zm9.11,9a7.56,7.56,0,0,1-4.78-.43,46.56,46.56,0,0,0-.17-7.14,16.67,16.67,0,0,0,4.89-.14c-.07.68-.13,1.41-.18,2.2a9.89,9.89,0,0,1-2.63.3V125A7.47,7.47,0,0,0,80,125c0,.69.07,1.36.07,2a7.58,7.58,0,0,1-2.62.11l0,.48a6.57,6.57,0,0,0,2.62-.08c.07.86.16,1.67.28,2.42Zm2.27-6.95.12,1.55q1.73-.32,1.62-1.11c-.07-.53-.65-.68-1.74-.44Zm.38,3.36a23.72,23.72,0,0,0,.54,2.77,22.19,22.19,0,0,0-2.69.88,55.63,55.63,0,0,1-.2-8.33,7,7,0,0,1,4.14-.44c1.19.29,1.8.92,1.82,1.89s-.57,1.78-1.79,2.42A19.46,19.46,0,0,0,87,127.57a16.17,16.17,0,0,0-1.41,1.88,24.41,24.41,0,0,1-2.63-3.16Zm9.71-4.84a25.29,25.29,0,0,1,.25,3.48,17.89,17.89,0,0,1-1.91-.06c.13,1.77.19,3.4.16,4.89a17.09,17.09,0,0,0-2.17-.47,27.76,27.76,0,0,0,0-4.39l-1.46,0L87,122.23q2.34-.47,5.62-.78Zm.78,2.48a9,9,0,0,1,2.3.09,28.83,28.83,0,0,0,.13,5.43,10.64,10.64,0,0,0-2.47.2,19.24,19.24,0,0,1,0-5.72Zm.86-3a1.29,1.29,0,0,1,1,0,.87.87,0,0,1,.55.63,1.22,1.22,0,0,1-.19.92,1.71,1.71,0,0,1-.82.68,1.29,1.29,0,0,1-1,0,.84.84,0,0,1-.55-.62,1.22,1.22,0,0,1,.2-.92,1.64,1.64,0,0,1,.81-.68Zm1.66,8.9q.18-4.12.06-7.88a4.27,4.27,0,0,1,4.25,1.26,4.87,4.87,0,0,1,1,4.34c-.35,1.74-2.11,2.51-5.28,2.28ZM98,127.41c.88,0,1.3-.47,1.25-1.31A1.2,1.2,0,0,0,98,124.81c.05.79.06,1.66,0,2.6Zm15-6a17.62,17.62,0,0,0-1.59,5.53,10,10,0,0,0-2.26.28,27.36,27.36,0,0,1,.84-5.69,5.71,5.71,0,0,1,3-.12ZM110,128a1.24,1.24,0,0,1,1,0,.83.83,0,0,1,.54.62,1.17,1.17,0,0,1-.19.92,1.64,1.64,0,0,1-.81.68,1.24,1.24,0,0,1-1,0,.83.83,0,0,1-.55-.61,1.22,1.22,0,0,1,.19-.93A1.71,1.71,0,0,1,110,128Zm6.56-6.55a5.7,5.7,0,0,0-3,.12,26.71,26.71,0,0,0-.84,5.69,10,10,0,0,1,2.26-.28,17.62,17.62,0,0,1,1.59-5.53Zm-3,6.55a1.26,1.26,0,0,1,1,0,.83.83,0,0,1,.54.62,1.17,1.17,0,0,1-.19.92,1.64,1.64,0,0,1-.81.68,1.24,1.24,0,0,1-1,0,.83.83,0,0,1-.55-.61,1.22,1.22,0,0,1,.19-.93,1.73,1.73,0,0,1,.81-.68Zm6.57-6.55a17.62,17.62,0,0,0-1.59,5.53,10,10,0,0,0-2.26.28,26.08,26.08,0,0,1,.84-5.69,5.7,5.7,0,0,1,3-.12ZM117,128a1.24,1.24,0,0,1,1,0,.82.82,0,0,1,.55.62,1.17,1.17,0,0,1-.19.92,1.69,1.69,0,0,1-.81.68,1.24,1.24,0,0,1-1,0,.83.83,0,0,1-.55-.61,1.22,1.22,0,0,1,.19-.93A1.73,1.73,0,0,1,117,128Z"/><path class="cls-25" d="M105,129.29a2.78,2.78,0,0,0,2.88-3.52c-.35-2.12-1.13-3.93-2.88-4.07-1.69,0-3.29,2.58-3.29,4.67s1.33,2.92,3.29,2.92Zm-.14-3.14c-.34,0-.57-.14-.57-.5s.27-.81.57-.81.44.33.5.7A.48.48,0,0,1,104.86,126.15Z"/><path class="cls-25" d="M41,129.83a2.78,2.78,0,0,0,2.88-3.51c-.35-2.13-1.13-3.94-2.88-4.08-1.69,0-3.29,2.58-3.29,4.68S39,129.83,41,129.83Zm-.15-3.13c-.34,0-.57-.15-.57-.51s.28-.8.57-.81.44.34.51.71A.49.49,0,0,1,40.83,126.7Z"/></g></g></svg>