<svg xmlns="http://www.w3.org/2000/svg" viewBox="0 0 192 99.21"><defs><style>.cls-1{fill:#bdef76;}.cls-2{fill:#1d1d1b;}.cls-3{fill:#fff;fill-rule:evenodd;}</style></defs><title>COMBOS</title><g id="Capa_2" data-name="Capa 2"><g id="Capa_3" data-name="Capa 3"><rect class="cls-1" x="0.75" y="0.75" width="190.5" height="97.71" rx="39.18"/><path class="cls-2" d="M152.07,99.21H39.93A40,40,0,0,1,0,59.29V39.93A40,40,0,0,1,39.93,0H152.07A40,40,0,0,1,192,39.93V59.29A40,40,0,0,1,152.07,99.21ZM39.93,1.5A38.47,38.47,0,0,0,1.5,39.93V59.29A38.47,38.47,0,0,0,39.93,97.71H152.07A38.47,38.47,0,0,0,190.5,59.29V39.93A38.47,38.47,0,0,0,152.07,1.5Z"/><path class="cls-3" d="M46.32,9.54S32.07,6.32,21.25,15.75s-8.14,22.5-8.14,22.5,1.2-9.87,10.42-19.17C28,14.57,35.68,11.17,46.32,9.54Z"/><path class="cls-3" d="M183.68,52.89c0-.28,2.86,14.72-7.72,26.86s-32.71,11.14-32.71,11.14S162.88,86.3,171.54,77A51.15,51.15,0,0,0,183.68,52.89Z"/></g></g></svg>