<svg xmlns="http://www.w3.org/2000/svg" viewBox="0 0 192 99.21"><defs><style>.cls-1{fill:#e15bd6;}.cls-2{fill:#1d1d1b;}.cls-3{fill:#efefef;fill-rule:evenodd;}</style></defs><title>HAMBURGUESAS</title><g id="Capa_2" data-name="Capa 2"><g id="Capa_3" data-name="Capa 3"><rect class="cls-1" x="0.75" y="0.75" width="190.5" height="97.71" rx="39.18"/><path class="cls-2" d="M152.07,99.21H39.93A40,40,0,0,1,0,59.29V39.93A40,40,0,0,1,39.93,0H152.07A40,40,0,0,1,192,39.93V59.29A40,40,0,0,1,152.07,99.21ZM39.93,1.5A38.47,38.47,0,0,0,1.5,39.93V59.29A38.47,38.47,0,0,0,39.93,97.71H152.07A38.47,38.47,0,0,0,190.5,59.29V39.93A38.47,38.47,0,0,0,152.07,1.5Z"/><path class="cls-3" d="M50.11,10a38.2,38.2,0,0,0-22.57,6.72A30.93,30.93,0,0,0,15.11,35.54a25.17,25.17,0,0,1,11.71-22C39.68,5.25,50.11,10,50.11,10Z"/><path class="cls-3" d="M183.68,59.68s-.57,10.57-11,19.86-24.29,9.85-24.29,9.85,17.72,4.15,27.43-7.57S183.68,59.68,183.68,59.68Z"/></g></g></svg>