<svg xmlns="http://www.w3.org/2000/svg" viewBox="0 0 192 99.21"><defs><style>.cls-1{fill:#00daff;}.cls-2{fill:#1d1d1b;}.cls-3{fill:#fff;fill-rule:evenodd;}</style></defs><title>KIDS MENU</title><g id="Capa_2" data-name="Capa 2"><g id="Capa_3" data-name="Capa 3"><rect class="cls-1" x="0.75" y="0.75" width="190.5" height="97.71" rx="39.18"/><path class="cls-2" d="M152.07,99.21H39.93A40,40,0,0,1,0,59.29V39.93A40,40,0,0,1,39.93,0H152.07A40,40,0,0,1,192,39.93V59.29A40,40,0,0,1,152.07,99.21ZM39.93,1.5A38.47,38.47,0,0,0,1.5,39.93V59.29A38.47,38.47,0,0,0,39.93,97.71H152.07A38.47,38.47,0,0,0,190.5,59.29V39.93A38.47,38.47,0,0,0,152.07,1.5Z"/><path class="cls-3" d="M8.25,39.46s4-12.42,13-19.71a42.79,42.79,0,0,1,26-10.57S29,6.46,18.25,17.46,8.25,39.46,8.25,39.46Z"/><path class="cls-3" d="M185.54,53s-.15,20.28-10.72,28.71-19,9.86-31.28,9.57c0,0,20.14-2.14,29.85-14.71S185.54,53,185.54,53Z"/></g></g></svg>