<svg xmlns="http://www.w3.org/2000/svg" viewBox="0 0 192 99.21"><defs><style>.cls-1{fill:#ff119b;}.cls-2{fill:#1d1d1b;}.cls-3{fill:#fff;fill-rule:evenodd;}</style></defs><title>POLLOS</title><g id="Capa_2" data-name="Capa 2"><g id="Capa_3" data-name="Capa 3"><rect class="cls-1" x="0.75" y="0.75" width="190.5" height="97.71" rx="39.18"/><path class="cls-2" d="M152.07,99.21H39.93A40,40,0,0,1,0,59.29V39.93A40,40,0,0,1,39.93,0H152.07A40,40,0,0,1,192,39.93V59.29A40,40,0,0,1,152.07,99.21ZM39.93,1.5A38.47,38.47,0,0,0,1.5,39.93V59.29A38.47,38.47,0,0,0,39.93,97.71H152.07A38.47,38.47,0,0,0,190.5,59.29V39.93A38.47,38.47,0,0,0,152.07,1.5Z"/><path class="cls-3" d="M46.68,9.54S32.11,7.11,23,13.68,12.39,35.54,12.39,35.54s3.83-12.19,13.86-19.72C32,11.54,46.68,9.54,46.68,9.54Z"/><path class="cls-3" d="M184.39,59.82S185,75,173.11,83.11s-28.72,8.57-28.72,8.57,17.57-2.86,26.72-12A64.26,64.26,0,0,0,184.39,59.82Z"/></g></g></svg>