<svg xmlns="http://www.w3.org/2000/svg" viewBox="0 0 192 99.21"><defs><style>.cls-1{fill:#6399ff;}.cls-2{fill:#1d1d1b;}.cls-3{fill:#fff;fill-rule:evenodd;}</style></defs><title>REFRESCOS</title><g id="Capa_2" data-name="Capa 2"><g id="Capa_3" data-name="Capa 3"><rect class="cls-1" x="0.75" y="0.75" width="190.5" height="97.71" rx="39.18"/><path class="cls-2" d="M152.07,99.21H39.93A40,40,0,0,1,0,59.29V39.93A40,40,0,0,1,39.93,0H152.07A40,40,0,0,1,192,39.93V59.29A40,40,0,0,1,152.07,99.21ZM39.93,1.5A38.47,38.47,0,0,0,1.5,39.93V59.29A38.47,38.47,0,0,0,39.93,97.71H152.07A38.47,38.47,0,0,0,190.5,59.29V39.93A38.47,38.47,0,0,0,152.07,1.5Z"/><path class="cls-3" d="M45.54,8.82s-14-2.86-25.86,6-9.14,24.43-9.14,24.43,5-16.57,12-21.71C31.11,10.39,45.54,8.82,45.54,8.82Z"/><path class="cls-3" d="M182.39,52s0,19.72-11.14,28.86c-14.29,11.72-32.14,8.72-32.14,8.72s20.58-1.84,31.28-14.43S182.39,52,182.39,52Z"/></g></g></svg>